<?xml version="1.0" encoding="UTF-8" standalone="no"?>
<svg
   xmlns:dc="http://purl.org/dc/elements/1.1/"
   xmlns:cc="http://creativecommons.org/ns#"
   xmlns:rdf="http://www.w3.org/1999/02/22-rdf-syntax-ns#"
   xmlns:svg="http://www.w3.org/2000/svg"
   xmlns="http://www.w3.org/2000/svg"
   xmlns:sodipodi="http://sodipodi.sourceforge.net/DTD/sodipodi-0.dtd"
   xmlns:inkscape="http://www.inkscape.org/namespaces/inkscape"
   width="209mm"
   height="135.2709mm"
   viewBox="0 0 209 135.2709"
   version="1.1"
   id="svg4562"
   inkscape:version="1.0.2 (e86c8708, 2021-01-15)"
   sodipodi:docname="fc-salzburg.svg">
  <defs
     id="defs4556" />
  <sodipodi:namedview
     id="base"
     pagecolor="#ffffff"
     bordercolor="#666666"
     borderopacity="1.0"
     inkscape:pageopacity="0.0"
     inkscape:pageshadow="2"
     inkscape:zoom="0.35"
     inkscape:cx="221.84003"
     inkscape:cy="501.3443"
     inkscape:document-units="mm"
     inkscape:current-layer="layer1"
     inkscape:document-rotation="0"
     showgrid="false"
     fit-margin-top="0"
     fit-margin-left="0"
     fit-margin-right="0"
     fit-margin-bottom="0"
     inkscape:window-width="1248"
     inkscape:window-height="943"
     inkscape:window-x="47"
     inkscape:window-y="25"
     inkscape:window-maximized="0" />
  <metadata
     id="metadata4559">
    <rdf:RDF>
      <cc:Work
         rdf:about="">
        <dc:format>image/svg+xml</dc:format>
        <dc:type
           rdf:resource="http://purl.org/dc/dcmitype/StillImage" />
        <dc:title></dc:title>
      </cc:Work>
    </rdf:RDF>
  </metadata>
  <g
     inkscape:label="Ebene 1"
     inkscape:groupmode="layer"
     id="layer1"
     transform="translate(-47.13816,-15.51932)">
    <path
       d="m 145.64214,37.59616 6.02721,-4.39738 6.02985,4.39738 -2.28335,-7.16492 6.02985,-4.23069 h -7.33425 l -2.4421,-7.3316 -2.43946,7.3316 h -7.33425 l 6.02721,4.23069 z"
       fill="#ffcc00"
       id="path833"
       style="stroke-width:0.264583" />
    <path
       d="m 151.66935,18.86895 -2.43946,7.3316 z"
       fill="#ffcc00"
       id="path835"
       style="stroke-width:0.264583" />
    <path
       d="m 151.66935,33.19878 6.02985,4.39738 z"
       fill="#ffcc00"
       id="path837"
       style="stroke-width:0.264583" />
    <path
       d="m 156.72845,133.40734 -1.77192,0.17542 0.58315,5.89518 1.77191,-0.17542 z"
       fill="#ffffff"
       id="path839"
       style="stroke-width:0.264583" />
    <path
       d="m 134.32591,119.5736 -3.63246,4.67968 1.40652,1.09194 3.63273,-4.67969 z"
       fill="#ffffff"
       id="path841"
       style="stroke-width:0.264583" />
    <path
       d="m 155.97227,125.74051 -1.77192,0.17542 0.58315,5.89518 1.77218,-0.17542 z"
       fill="#ffffff"
       id="path843"
       style="stroke-width:0.264583" />
    <path
       d="m 169.16916,120.32422 -1.45257,1.03029 3.42768,4.83182 1.4523,-1.03029 z"
       fill="#ffffff"
       id="path845"
       style="stroke-width:0.264583" />
    <path
       d="m 146.67931,30.85193 -2.04788,6.42408 -0.9816,3.0824 2.61408,-1.90765 5.40544,-3.94229 5.40544,3.94229 2.61408,1.90765 -0.9816,-3.0824 -2.04788,-6.42408 5.39221,-3.78354 2.74373,-1.92352 h -9.92188 l -2.20133,-6.60929 -1.00542,-3.01626 -1.00277,3.01626 -2.19868,6.60929 h -9.92188 l 2.74373,1.92352 z m 4.99004,-11.98298 2.4421,7.33425 h 7.33425 l -6.02985,4.23069 2.28335,7.16491 -6.02985,-4.39737 -6.02721,4.39737 2.28336,-7.16491 -6.02986,-4.23069 h 7.33425 z"
       fill="#ffffff"
       id="path847"
       style="stroke-width:0.264583" />
    <path
       d="m 210.13168,95.62457 c -0.83608,-3.7756 -2.99773,-7.1702 -6.08012,-9.56204 -0.19315,-0.14816 -0.38629,-0.29368 -0.58473,-0.43391 -0.68263,-2.95805 -1.6219,-5.85788 -2.81781,-8.68098 C 197.97143,70.6188 194.14027,64.93291 189.2587,60.05135 184.37714,55.16978 178.69125,51.33597 172.36241,48.66103 165.80868,45.8882 158.8475,44.48326 151.672,44.48326 c -7.1755,0 -14.13669,1.40494 -20.69042,4.17777 -6.32883,2.67759 -12.01478,6.50875 -16.89634,11.39032 -4.46617,4.46616 -8.05128,9.60702 -10.68123,15.2982 -0.4789,0.11378 -1.16417,0.29898 -1.55046,0.52388 -0.47096,0.27517 -1.90765,1.11654 -1.74361,2.56117 0.0371,0.3175 0.14023,0.59002 0.2884,0.82285 -0.67733,0.26458 -1.38642,0.66146 -1.75419,1.41552 -0.51064,1.05569 -0.43656,2.58233 0.16934,3.48192 0.30162,0.44979 0.69056,0.82285 1.14829,1.11125 -0.96044,4.02431 -1.44727,8.15975 -1.44727,12.36927 0,0.0132 0,0.0265 0,0.0397 -0.80698,0.29104 -1.4658,0.54239 -1.99232,0.78052 -0.85196,0.38364 -1.88119,0.85725 -3.38403,1.92352 0,0 0.70644,0.32014 5.44514,-0.0238 0.14552,2.91571 0.52916,5.79173 1.143,8.61484 -2.15636,0.9181 -2.78871,3.25437 -3.02154,4.11427 l -0.17198,0.64558 0.36777,0.55827 c 0.24606,0.37571 1.38377,1.02129 1.51077,1.10332 0.45244,0.28839 1.016,0.64558 1.73037,0.64558 0.28311,0 0.55034,-0.0582 0.80169,-0.16933 0.16669,0.35983 0.40481,0.6006 0.56356,0.73025 0,0 0.24342,0.10318 0.59267,0.2487 0.19315,0.49477 0.38894,0.98955 0.59796,1.47902 2.67758,6.32884 6.50875,12.01473 11.39031,16.8963 4.88156,4.88156 10.56751,8.71537 16.89635,11.39031 6.55372,2.77283 13.51491,4.17777 20.69041,4.17777 7.1755,0 14.13669,-1.40494 20.69042,-4.17777 6.32883,-2.67758 12.01473,-6.50875 16.89629,-11.39031 4.88156,-4.88157 8.71537,-10.56746 11.39031,-16.8963 0.64559,-1.52664 1.21444,-3.0771 1.71186,-4.64343 6.0272,-3.76238 9.35831,-10.90877 7.77081,-18.06046 z m -21.62439,38.85142 c -1.19327,1.19327 -2.43417,2.32304 -3.72269,3.38402 -2.52677,2.08492 -5.23081,3.91584 -8.0989,5.48481 -0.0635,0.0344 -0.127,0.0714 -0.19314,0.10848 -0.0979,0.0529 -0.19844,0.10319 -0.29634,0.15611 -0.3466,0.18521 -0.69585,0.36777 -1.04775,0.54504 -0.21695,0.10848 -0.43391,0.21431 -0.65352,0.32015 -0.14287,0.0688 -0.2831,0.14022 -0.42598,0.20902 -0.19843,0.0953 -0.40216,0.18785 -0.60325,0.28045 -0.16404,0.0767 -0.32808,0.15346 -0.49477,0.22755 -0.20108,0.09 -0.40216,0.17727 -0.60325,0.26458 -0.16404,0.0714 -0.32808,0.14287 -0.49212,0.21431 -0.29633,0.12436 -0.59531,0.24606 -0.89165,0.36513 -0.0926,0.037 -0.18256,0.0741 -0.27252,0.11112 -0.3466,0.13759 -0.69585,0.26723 -1.0451,0.39688 -0.0476,0.0185 -0.0953,0.037 -0.14023,0.0529 -0.39423,0.14288 -0.78846,0.28311 -1.18533,0.4154 -0.008,0 -0.0159,0.005 -0.0238,0.008 -0.40746,0.13758 -0.81756,0.26987 -1.22766,0.39687 -0.127,0.0397 -0.25665,0.0767 -0.3863,0.11377 -0.27516,0.082 -0.55033,0.16669 -0.82814,0.24342 -0.22754,0.0635 -0.45508,0.12435 -0.68263,0.18521 -0.18256,0.0476 -0.36512,0.10054 -0.54768,0.14552 -0.28046,0.0714 -0.56357,0.14023 -0.84402,0.20637 -0.13494,0.0318 -0.26723,0.0662 -0.40217,0.0979 -0.30163,0.0688 -0.60325,0.13229 -0.90488,0.19579 -0.11906,0.0265 -0.24077,0.0529 -0.35983,0.0767 -0.29104,0.0609 -0.58473,0.11377 -0.87842,0.16933 -0.13493,0.0238 -0.26987,0.0529 -0.40481,0.0767 -0.25929,0.045 -0.52123,0.0873 -0.78052,0.12965 -0.17462,0.0291 -0.3466,0.0582 -0.52123,0.0847 -0.20373,0.0317 -0.40746,0.0582 -0.61119,0.0847 -0.23547,0.0318 -0.46831,0.0662 -0.70643,0.0979 -0.11907,0.0159 -0.23813,0.0265 -0.35984,0.0423 -2.04523,0.24077 -4.11427,0.36513 -6.20183,0.36513 -2.08756,0 -4.1566,-0.12436 -6.20183,-0.36513 -0.11907,-0.0132 -0.24077,-0.0265 -0.35984,-0.0423 -0.23548,-0.0291 -0.47095,-0.0635 -0.70379,-0.0979 -0.20373,-0.0291 -0.40746,-0.0556 -0.61119,-0.0847 -0.17462,-0.0265 -0.3466,-0.0556 -0.52122,-0.0847 -0.2593,-0.0423 -0.52123,-0.082 -0.78053,-0.12965 -0.13493,-0.0238 -0.26987,-0.0503 -0.40481,-0.0767 -0.29369,-0.0556 -0.58737,-0.10848 -0.87841,-0.16933 -0.12171,-0.0238 -0.24078,-0.0529 -0.35984,-0.0767 -0.30162,-0.0635 -0.60325,-0.127 -0.90487,-0.19579 -0.13494,-0.0317 -0.26723,-0.0661 -0.39952,-0.0979 -0.28311,-0.0661 -0.56357,-0.13493 -0.84667,-0.20637 -0.18256,-0.0476 -0.36513,-0.0979 -0.54504,-0.14552 -0.22754,-0.0609 -0.45509,-0.12171 -0.68263,-0.18521 -0.27781,-0.0794 -0.55298,-0.1614 -0.83079,-0.24606 -0.127,-0.0397 -0.25664,-0.0741 -0.38364,-0.11377 -0.41011,-0.127 -0.82021,-0.2593 -1.22767,-0.39688 -0.0106,-0.003 -0.0185,-0.008 -0.0291,-0.0106 -0.39422,-0.13229 -0.78581,-0.26988 -1.17739,-0.4154 -0.0476,-0.0159 -0.0926,-0.0344 -0.14023,-0.0529 -0.3519,-0.12965 -0.70115,-0.26194 -1.04775,-0.39688 -0.09,-0.0344 -0.17727,-0.0714 -0.26723,-0.10848 -0.30162,-0.11906 -0.6006,-0.24077 -0.89958,-0.36777 -0.16404,-0.0688 -0.32809,-0.14023 -0.49213,-0.21167 -0.20108,-0.0873 -0.40481,-0.17462 -0.60589,-0.26458 -0.16669,-0.0741 -0.33073,-0.15081 -0.49477,-0.22754 -0.20109,-0.0926 -0.40217,-0.18521 -0.60325,-0.28046 -0.14288,-0.0688 -0.28311,-0.14023 -0.42598,-0.20902 -0.21696,-0.10583 -0.43657,-0.21167 -0.65352,-0.32015 -0.3519,-0.17727 -0.70115,-0.35983 -1.04775,-0.54504 -0.0979,-0.0529 -0.19844,-0.10319 -0.29634,-0.1561 -0.0661,-0.0344 -0.12964,-0.0714 -0.19314,-0.10848 -2.86544,-1.56898 -5.57213,-3.3999 -8.09631,-5.48481 -1.28852,-1.06363 -2.52941,-2.1934 -3.72268,-3.38402 -1.19327,-1.19328 -2.32305,-2.43417 -3.38667,-3.72269 -2.08227,-2.52413 -3.91319,-5.22817 -5.48217,-8.08831 -0.037,-0.0688 -0.0767,-0.13494 -0.11112,-0.20109 -0.0529,-0.0953 -0.10054,-0.19314 -0.15081,-0.28839 -0.19315,-0.36248 -0.38365,-0.72761 -0.56886,-1.09538 -0.0688,-0.13494 -0.13229,-0.26987 -0.19844,-0.40481 -0.1217,-0.24606 -0.24341,-0.49213 -0.35983,-0.74083 -0.0582,-0.12171 -0.11377,-0.24342 -0.16933,-0.36513 -0.12436,-0.26987 -0.24871,-0.53975 -0.37042,-0.81227 -0.0476,-0.10583 -0.0926,-0.21431 -0.14023,-0.32015 -0.12171,-0.28045 -0.24077,-0.56091 -0.35983,-0.84137 -0.0212,-0.0529 -0.045,-0.10848 -0.0662,-0.1614 0.56092,0.23548 1.02659,0.43127 1.03717,0.43392 0.28046,0.0794 0.56092,0.11906 0.83608,0.11906 0.32279,0 0.61648,-0.0529 0.89165,-0.14023 2.48179,5.57742 5.93725,10.6045 10.28171,14.94896 4.56676,4.56671 9.88488,8.15181 15.80361,10.65477 6.12511,2.59027 12.6365,3.90525 19.34898,3.90525 6.71248,0 13.22387,-1.31498 19.34898,-3.90525 5.91873,-2.50296 11.23685,-6.08806 15.80356,-10.65477 4.56671,-4.56671 8.15181,-9.88483 10.65477,-15.80356 0.1905,-0.44979 0.37042,-0.90223 0.54769,-1.35467 1.03717,-0.30956 2.02935,-0.70114 2.96333,-1.17739 -0.1905,0.56091 -0.39158,1.11918 -0.60325,1.67481 -0.0106,0.0291 -0.0212,0.0582 -0.0318,0.0873 -0.082,0.21696 -0.16933,0.43392 -0.254,0.65088 -0.0423,0.10583 -0.082,0.20902 -0.12435,0.31485 -0.0714,0.17727 -0.14288,0.3519 -0.21696,0.52652 -0.0529,0.12436 -0.10583,0.25136 -0.15875,0.37571 -0.10054,0.23812 -0.20373,0.4736 -0.30956,0.70644 -0.0503,0.11377 -0.10054,0.22754 -0.15081,0.33866 -0.11113,0.24342 -0.2249,0.48684 -0.33867,0.73025 -0.045,0.0979 -0.09,0.19315 -0.13758,0.29105 -0.1323,0.27516 -0.26723,0.55033 -0.40482,0.82285 -0.0318,0.0608 -0.0609,0.12435 -0.0926,0.18785 -0.17198,0.33867 -0.34661,0.67734 -0.52652,1.01336 -0.0503,0.0953 -0.10054,0.1905 -0.15081,0.28575 -0.037,0.0688 -0.0767,0.13494 -0.11113,0.20108 -1.56898,2.86279 -3.39725,5.56683 -5.48217,8.09096 -1.06362,1.28852 -2.19339,2.52942 -3.38402,3.72269 z m -7.37923,-24.56392 c 0.0714,0.0132 0.14552,0.0238 0.2196,0.0344 0.24077,0.037 0.48948,0.0688 0.75406,0.0926 0.50007,0.47361 1.03453,0.91282 1.59544,1.31234 2.49767,1.78064 5.54038,2.79664 8.73125,2.79664 1.08479,0 2.18546,-0.11641 3.28613,-0.36248 1.18268,-0.26193 2.31246,-0.65881 3.37608,-1.17739 1.09273,-0.53181 2.11138,-1.19063 3.04006,-1.96586 0.23548,-0.19579 0.46567,-0.39952 0.68792,-0.60854 0.25135,-0.23812 0.49212,-0.48683 0.7276,-0.74083 0.58209,-0.63235 1.11655,-1.31498 1.59015,-2.05052 2.16165,-3.35227 2.87867,-7.32896 2.01877,-11.20246 -0.49477,-2.23044 -1.47902,-4.26773 -2.86808,-6.0034 -0.20902,-0.26193 -0.42863,-0.51593 -0.65617,-0.762 -0.20637,-0.22489 -0.41804,-0.4445 -0.64029,-0.65616 -0.37571,-0.35984 -0.76729,-0.70379 -1.18269,-1.02394 -0.0609,-0.0476 -0.127,-0.0926 -0.1905,-0.14023 -0.0132,0.0212 -0.0291,0.045 -0.0423,0.0688 -0.008,0.0132 -0.0159,0.0238 -0.0238,0.037 -0.0212,0.0344 -0.0423,0.0661 -0.0662,0.10319 -0.19579,0.29369 -0.48419,0.67734 -0.889,1.09538 -0.0661,0.0688 -0.12965,0.13493 -0.20108,0.20637 -2.94746,-1.19327 -6.42144,-1.76477 -6.42144,-1.76477 l -1.88913,-2.50825 -0.0899,-0.11906 -0.09,-0.12171 c -0.87313,0.0397 -1.74625,0.15081 -2.61673,0.34396 -1.42611,0.31485 -2.75431,0.82814 -3.97404,1.49225 -0.0926,0.0926 -0.19844,0.19844 -0.31486,0.31485 -0.10319,0.10584 -0.21696,0.21961 -0.33602,0.34396 l -0.0106,0.0132 c -0.66411,0.68527 -1.53723,1.63777 -2.40771,2.71992 -0.57944,0.43391 -1.17475,0.87841 -1.67746,1.26206 -0.09,0.0688 -0.17462,0.13229 -0.25664,0.19844 -0.11907,0.0926 -0.23019,0.17991 -0.33338,0.26193 -0.0979,0.0767 -0.18785,0.15082 -0.26723,0.21432 -0.28839,0.47096 -0.55298,0.95514 -0.7911,1.45521 -0.0185,-0.0661 -0.0397,-0.13494 -0.0609,-0.20109 -0.008,-0.0238 -0.0159,-0.0503 -0.0212,-0.0741 -0.0185,-0.0688 -0.037,-0.13494 -0.0582,-0.20373 v -0.0132 c -0.0212,-0.0582 -0.0344,-0.11642 -0.0503,-0.17462 0.0106,-0.0238 0.0212,-0.045 0.0344,-0.0688 0.59532,-1.12712 1.32557,-2.18281 2.17488,-3.14589 1.19062,-1.34673 2.61408,-2.50825 4.22804,-3.41313 0.46037,-0.25929 0.93927,-0.49741 1.42875,-0.71437 0.9816,-0.43127 2.02406,-0.77523 3.11415,-1.01865 0.28839,-0.0635 0.57679,-0.11906 0.86518,-0.16669 0.0952,-0.0159 0.1905,-0.0265 0.28311,-0.0423 0.19314,-0.0291 0.38629,-0.0582 0.57943,-0.0794 0.11378,-0.0132 0.2249,-0.0212 0.33603,-0.0317 0.17462,-0.0159 0.34925,-0.0318 0.52387,-0.0423 0.11906,-0.008 0.23813,-0.0106 0.35454,-0.0159 0.16669,-0.008 0.33602,-0.0132 0.50271,-0.0132 0.14288,0 0.28575,0 0.42598,0 0.0952,0 0.19315,0.003 0.2884,0.005 0.16668,0.005 0.33072,0.0159 0.49477,0.0265 0.0847,0.005 0.16933,0.008 0.25135,0.0159 0.21431,0.0159 0.42598,0.0397 0.63765,0.0635 0.0344,0.005 0.0661,0.005 0.10054,0.0106 0.24606,0.0318 0.48948,0.0661 0.73025,0.10848 0.0714,0.0132 0.14023,0.0264 0.20902,0.0397 0.17198,0.0317 0.34131,0.0635 0.51329,0.10055 0.0873,0.0185 0.17463,0.0397 0.26194,0.0608 0.15081,0.037 0.30427,0.0741 0.45244,0.11377 0.0899,0.0238 0.18256,0.0503 0.27252,0.0741 0.14816,0.0423 0.29368,0.0847 0.4392,0.1323 0.0873,0.0264 0.17728,0.0556 0.26459,0.0847 0.15081,0.0503 0.30162,0.10319 0.44979,0.15875 0.0794,0.0291 0.15875,0.0556 0.23548,0.0873 0.17992,0.0688 0.35719,0.14288 0.53181,0.21696 0.0159,0.008 0.0318,0.0132 0.0476,0.0185 0.0291,0.0132 0.0582,0.0238 0.0873,0.0371 0.22225,0.0979 0.43921,0.19843 0.65617,0.30427 0.0529,0.0264 0.10583,0.0556 0.1561,0.082 0.1614,0.082 0.32279,0.16404 0.48154,0.25135 0.0741,0.0397 0.14817,0.0847 0.22225,0.127 0.13494,0.0767 0.26988,0.15611 0.40217,0.23548 0.0794,0.0476 0.1561,0.0952 0.23283,0.14552 0.127,0.0794 0.254,0.1614 0.37836,0.24606 0.0688,0.045 0.13493,0.09 0.20108,0.13759 0,0 0.0159,0.0132 0.0238,0.0185 0.127,0.0873 0.25136,0.17991 0.37571,0.27252 0.0688,0.0503 0.13758,0.10054 0.20637,0.15346 0.0106,0.008 0.0212,0.0159 0.0318,0.0238 0.12965,0.10054 0.2593,0.20373 0.3863,0.30956 0.0476,0.0397 0.0952,0.0767 0.14287,0.11377 0.0423,0.0344 0.0794,0.0714 0.12171,0.10584 0.14023,0.1217 0.2831,0.24341 0.41804,0.36777 0.0344,0.0318 0.0688,0.0661 0.10319,0.0979 0.14023,0.13229 0.27781,0.26459 0.41275,0.39952 0.0582,0.0582 0.11377,0.11907 0.17198,0.17992 0.10848,0.11377 0.21696,0.22754 0.32279,0.34396 0.0609,0.0688 0.12171,0.13758 0.18256,0.20637 0.0979,0.11377 0.19579,0.22755 0.29104,0.34396 0.0582,0.0714 0.11907,0.14552 0.17727,0.21696 0.0953,0.11906 0.18786,0.24077 0.27782,0.36513 0.0529,0.0714 0.10583,0.14287 0.15875,0.21431 0.0979,0.13758 0.19579,0.27781 0.28839,0.42069 0.0397,0.0582 0.082,0.11641 0.11907,0.17727 0.13229,0.20373 0.25929,0.40745 0.381,0.61648 0.0159,0.0265 0.0318,0.0556 0.0476,0.0847 0.10583,0.18256 0.20638,0.36777 0.30427,0.55563 0.037,0.0741 0.0741,0.14816 0.11113,0.22225 0.0714,0.14552 0.14287,0.29104 0.21166,0.43921 0.0397,0.0847 0.0767,0.17197 0.11642,0.25929 0.0609,0.14023 0.12171,0.28046 0.17992,0.42333 0.037,0.09 0.0714,0.18256 0.10848,0.27252 0.0556,0.14552 0.10847,0.29104 0.15875,0.43656 0.0317,0.09 0.0635,0.17992 0.0926,0.26988 0.0529,0.15875 0.10054,0.32279 0.14817,0.48419 0.0238,0.0794 0.0476,0.1561 0.0688,0.23548 0.0661,0.24077 0.127,0.48418 0.18256,0.73025 v 0.005 c 0.23548,1.06098 0.35454,2.11931 0.36777,3.16706 0.003,0.26194 0,0.52123 -0.0106,0.78317 -0.0317,0.78052 -0.12171,1.55045 -0.26988,2.30452 -0.0476,0.25135 -0.10318,0.50271 -0.16404,0.75141 -0.12171,0.49742 -0.26987,0.9869 -0.43921,1.4658 -0.0847,0.24077 -0.17462,0.47889 -0.27252,0.71437 -0.19314,0.47096 -0.4101,0.93398 -0.64558,1.38377 -0.23813,0.44979 -0.49742,0.889 -0.77788,1.31763 -0.28045,0.42598 -0.58208,0.84137 -0.90223,1.24089 -0.64029,0.79904 -1.35995,1.53988 -2.15106,2.21192 -0.23019,0.19579 -0.46831,0.38364 -0.71173,0.56885 -0.23018,0.17463 -0.46302,0.34132 -0.70379,0.50271 -0.15875,0.10848 -0.3175,0.21431 -0.47889,0.3175 -0.0635,0.0397 -0.12965,0.0767 -0.19315,0.11377 -0.23283,0.14023 -0.46831,0.27517 -0.70644,0.40746 -0.71966,0.38894 -1.47637,0.73025 -2.26483,1.01335 -0.16669,0.0609 -0.33338,0.11642 -0.50271,0.17198 -0.50535,0.16669 -1.02394,0.30957 -1.55575,0.42863 -0.2884,0.0635 -0.57679,0.11906 -0.86519,0.16669 -0.0952,0.0159 -0.1905,0.0264 -0.28575,0.0423 -0.19314,0.0291 -0.38629,0.0582 -0.57943,0.0794 -0.11378,0.0132 -0.2249,0.0212 -0.33867,0.0318 -0.17463,0.0159 -0.34925,0.0317 -0.52388,0.0423 -0.11906,0.008 -0.23812,0.0106 -0.35718,0.0159 -0.16669,0.008 -0.33338,0.0132 -0.50007,0.0132 -0.14287,0 -0.2831,0 -0.42598,0 -0.0952,0 -0.19314,-0.003 -0.28839,-0.005 -0.16404,-0.005 -0.32808,-0.0159 -0.49213,-0.0265 -0.0847,-0.005 -0.16933,-0.008 -0.254,-0.0159 -0.21166,-0.0159 -0.42068,-0.037 -0.6297,-0.0635 -0.037,-0.005 -0.0714,-0.008 -0.10848,-0.0106 -0.24342,-0.0317 -0.48684,-0.0661 -0.73025,-0.10848 -0.0714,-0.0132 -0.14023,-0.0265 -0.21167,-0.0397 -0.16933,-0.0317 -0.34131,-0.0635 -0.51065,-0.10054 -0.0873,-0.0185 -0.17727,-0.0397 -0.26458,-0.0609 -0.15081,-0.0344 -0.30162,-0.0714 -0.44979,-0.11112 -0.0926,-0.0238 -0.18256,-0.0503 -0.27517,-0.0767 -0.14552,-0.0423 -0.29104,-0.0847 -0.43391,-0.12965 -0.09,-0.0291 -0.17992,-0.0556 -0.26723,-0.0873 -0.14817,-0.0503 -0.29634,-0.10319 -0.4445,-0.15611 -0.0794,-0.0291 -0.1614,-0.0582 -0.23813,-0.0873 -0.17727,-0.0688 -0.35189,-0.14023 -0.52652,-0.21431 -0.0476,-0.0212 -0.0952,-0.037 -0.14287,-0.0582 -0.21961,-0.0952 -0.43921,-0.19844 -0.65353,-0.30427 -0.0556,-0.0265 -0.10847,-0.0556 -0.16404,-0.0847 -0.15875,-0.0794 -0.3175,-0.16404 -0.47625,-0.2487 -0.0741,-0.0423 -0.14816,-0.0847 -0.22489,-0.127 -0.13494,-0.0767 -0.26723,-0.15346 -0.39952,-0.23548 -0.0794,-0.0476 -0.15875,-0.0979 -0.23548,-0.14552 -0.127,-0.0794 -0.25136,-0.1614 -0.37571,-0.24607 -0.0767,-0.0529 -0.15346,-0.10318 -0.23019,-0.1561 -0.127,-0.0873 -0.25135,-0.17992 -0.37571,-0.26988 -0.0688,-0.0503 -0.13758,-0.10054 -0.20637,-0.15345 -0.14023,-0.10848 -0.28046,-0.21961 -0.4154,-0.33073 -0.0476,-0.0397 -0.0952,-0.0767 -0.14287,-0.11642 -0.18257,-0.15346 -0.36248,-0.31221 -0.53975,-0.4736 -0.0344,-0.0317 -0.0688,-0.0661 -0.10584,-0.10055 -0.13758,-0.12964 -0.27516,-0.26193 -0.4101,-0.39687 -0.0582,-0.0582 -0.11642,-0.11906 -0.17198,-0.17992 -0.10848,-0.11377 -0.21696,-0.22754 -0.32015,-0.34396 l -0.005,-0.005 c 0.0582,0.0106 0.11907,0.0185 0.17727,0.0291 0.0106,0 0.0212,0.003 0.0317,0.005 z m 8.87941,-18.96533 c 1.34673,2.667 2.413,6.04838 2.413,6.04838 -1.33085,1.48166 -4.92389,4.86833 -4.92389,4.86833 -3.20675,-1.71979 -5.32871,-3.15648 -5.32871,-3.15648 0.55298,-3.63273 1.66688,-6.62781 1.66688,-6.62781 1.68275,-0.38629 6.17008,-1.13242 6.17008,-1.13242 z m 11.3374,4.82336 c 0.4736,-0.45773 0.97896,-0.9234 1.49225,-1.35467 0,0 0.35983,0.29898 0.86783,0.75406 0.16934,0.15346 0.35455,0.32015 0.54769,0.50006 0.17727,0.16405 0.36248,0.33867 0.55033,0.51859 0.64294,0.62177 1.3044,1.31233 1.73303,1.90235 0,0 0.0979,1.73038 -1.46315,6.31561 0,0 -0.254,0.0688 -0.69585,0.15875 -0.15875,0.0317 -0.34396,0.0661 -0.55298,0.10054 -0.16669,0.0291 -0.34925,0.0556 -0.5424,0.082 -0.67469,0.0926 -1.50019,0.16933 -2.42887,0.18256 -0.17728,0 -0.35984,0.003 -0.54505,0 0,0 -0.97366,-3.39196 -1.55839,-6.40556 0,0 1.13241,-1.33879 2.59291,-2.75431 z m -10.6389,18.0287 h -0.005 c -0.22225,0.008 -0.38893,0.0132 -0.48683,0.0132 -0.0688,0 -0.10848,0 -0.10848,0 -0.0212,-0.0106 -0.0397,-0.0212 -0.0582,-0.0317 -0.0688,-0.0344 -0.13494,-0.0714 -0.20108,-0.10583 -2.67229,-1.41817 -3.98463,-3.07181 -3.98463,-3.07181 l 3.38667,-2.83104 6.37646,1.47902 0.32544,3.77031 c -2.02142,0.58473 -4.20952,0.73819 -5.23875,0.77787 z M 105.70324,73.10324 c 0.0503,-0.0952 0.10054,-0.1905 0.15081,-0.28575 0.037,-0.0688 0.0741,-0.13494 0.11112,-0.20108 1.56898,-2.86279 3.39725,-5.56683 5.48217,-8.08831 1.06362,-1.28852 2.1934,-2.52942 3.38402,-3.72269 1.19063,-1.19327 2.43417,-2.32304 3.72269,-3.38402 2.52418,-2.08227 5.22557,-3.91319 8.08836,-5.47952 0.0688,-0.037 0.13494,-0.0767 0.20373,-0.11377 0.0953,-0.0529 0.19315,-0.10055 0.2884,-0.15082 0.3466,-0.1852 0.69585,-0.36777 1.04775,-0.54504 0.2196,-0.11112 0.44185,-0.21696 0.66146,-0.32544 0.14023,-0.0688 0.27781,-0.13758 0.41804,-0.20637 0.20108,-0.0952 0.40481,-0.18785 0.60854,-0.2831 0.16404,-0.0741 0.32544,-0.15346 0.48948,-0.2249 0.20373,-0.0926 0.40746,-0.17992 0.61383,-0.26723 0.1614,-0.0688 0.32279,-0.14023 0.48419,-0.20902 0.30162,-0.127 0.60325,-0.24871 0.90487,-0.37042 0.0873,-0.0344 0.17463,-0.0714 0.26194,-0.10583 0.35454,-0.14023 0.70909,-0.27252 1.06363,-0.40481 0.0423,-0.0159 0.082,-0.0317 0.12435,-0.0476 0.39688,-0.14552 0.7964,-0.28575 1.19592,-0.42069 l 0.0132,-0.005 c 0.40746,-0.13758 0.81756,-0.26987 1.22766,-0.39687 0.12436,-0.0397 0.24871,-0.0741 0.37307,-0.11113 0.28045,-0.0847 0.55827,-0.16933 0.83873,-0.24871 0.22489,-0.0635 0.44979,-0.1217 0.67468,-0.18256 0.18521,-0.0503 0.36777,-0.10054 0.55298,-0.14816 0.27781,-0.0714 0.55827,-0.13759 0.83873,-0.20373 0.13494,-0.0317 0.27252,-0.0661 0.40746,-0.0979 0.29898,-0.0688 0.59796,-0.13229 0.89694,-0.19579 0.12171,-0.0265 0.24341,-0.0529 0.36777,-0.0794 0.29104,-0.0582 0.58473,-0.11377 0.87577,-0.16668 0.13494,-0.0265 0.26987,-0.0529 0.40746,-0.0767 0.25929,-0.045 0.51858,-0.0873 0.77787,-0.12965 0.17463,-0.0291 0.34925,-0.0582 0.52388,-0.0847 0.20108,-0.0318 0.40481,-0.0556 0.60854,-0.0847 0.23548,-0.0317 0.47096,-0.0688 0.70908,-0.0979 0.11906,-0.0159 0.23813,-0.0265 0.35719,-0.0397 2.04523,-0.24077 4.11427,-0.36512 6.20448,-0.36512 2.09021,0 4.1566,0.12435 6.20448,0.36512 0.11906,0.0132 0.23812,0.0265 0.35719,0.0397 0.23547,0.0291 0.4736,0.0635 0.70908,0.0979 0.20108,0.0291 0.40481,0.0556 0.60589,0.0847 0.17463,0.0265 0.34925,0.0582 0.52388,0.0847 0.25929,0.0423 0.51858,0.082 0.77787,0.12965 0.13494,0.0238 0.26988,0.0503 0.40746,0.0767 0.29369,0.0556 0.58473,0.10848 0.87577,0.16668 0.12171,0.0238 0.24342,0.0529 0.36777,0.0794 0.29898,0.0635 0.60061,0.127 0.89694,0.19579 0.13758,0.0317 0.27252,0.0661 0.40746,0.0979 0.28046,0.0661 0.55827,0.13229 0.83873,0.20373 0.18521,0.0476 0.37042,0.0979 0.55562,0.14816 0.2249,0.0609 0.4498,0.11906 0.67469,0.18256 0.28046,0.0794 0.55827,0.16405 0.83608,0.24607 0.12436,0.037 0.25136,0.0741 0.37571,0.11112 0.41011,0.127 0.82021,0.25929 1.22767,0.39688 0.008,0 0.0132,0.005 0.0212,0.008 0.39687,0.13494 0.79375,0.27253 1.18798,0.41805 0.045,0.0159 0.0873,0.0344 0.12964,0.0503 0.35454,0.12964 0.70644,0.26458 1.05833,0.40216 0.0847,0.0344 0.16934,0.0688 0.25665,0.10319 0.30427,0.12171 0.60854,0.24342 0.91017,0.37306 0.16139,0.0688 0.32014,0.13759 0.48154,0.20902 0.20637,0.09 0.41275,0.17728 0.61648,0.26988 0.16404,0.0741 0.32544,0.15081 0.48683,0.2249 0.20373,0.0952 0.40746,0.18785 0.61119,0.2831 0.14023,0.0662 0.27781,0.13494 0.41539,0.20373 0.22225,0.10848 0.4445,0.21696 0.66675,0.32808 0.3519,0.17727 0.70115,0.35984 1.04775,0.54504 0.0952,0.0503 0.19315,0.10055 0.2884,0.15082 0.0688,0.037 0.13494,0.0767 0.20373,0.11377 2.86279,1.56898 5.56419,3.39725 8.08831,5.47952 1.28852,1.06362 2.52942,2.19339 3.72269,3.38402 1.19327,1.19327 2.3204,2.43417 3.38402,3.72269 2.08227,2.52412 3.91319,5.22816 5.48217,8.09095 0.037,0.0688 0.0767,0.13494 0.11112,0.20109 0.0503,0.0926 0.10054,0.1905 0.15081,0.2831 0.18521,0.34661 0.36778,0.6985 0.54505,1.0504 0.11112,0.2196 0.21695,0.44185 0.32543,0.66146 0.0688,0.14023 0.13759,0.27781 0.20638,0.41804 0.0979,0.20373 0.1905,0.4101 0.28575,0.61383 0.0741,0.1614 0.15081,0.32279 0.22225,0.48419 0.0926,0.20637 0.17992,0.41275 0.26987,0.62177 0.0688,0.15875 0.14023,0.3175 0.20638,0.4789 0.127,0.30427 0.25135,0.60854 0.37306,0.91281 0.0344,0.0847 0.0688,0.16933 0.10319,0.25664 0.13758,0.3519 0.27252,0.70644 0.40217,1.05834 0.0159,0.045 0.0344,0.0873 0.0503,0.12964 0.14552,0.39688 0.28575,0.7964 0.42068,1.19592 l 0.005,0.0132 c 0.13758,0.40746 0.26987,0.81756 0.39687,1.22766 0.0397,0.12436 0.0741,0.24871 0.11113,0.37307 0.0847,0.28046 0.16933,0.55827 0.2487,0.83873 0.0635,0.22489 0.12171,0.44979 0.18257,0.67468 0.0503,0.18521 0.10054,0.37042 0.14816,0.55563 0.0106,0.045 0.0238,0.0873 0.0344,0.13229 -0.90223,-0.52652 -1.85208,-0.96837 -2.83633,-1.32556 -0.52123,-1.75419 -1.13771,-3.48456 -1.85738,-5.18319 -2.50296,-5.91873 -6.08806,-11.23685 -10.65477,-15.80356 -4.56671,-4.56671 -9.88483,-8.15181 -15.80356,-10.65477 -6.12511,-2.59027 -12.6365,-3.90525 -19.34898,-3.90525 -6.71248,0 -13.22388,1.31498 -19.34898,3.90525 -5.91873,2.50296 -11.23685,6.08806 -15.80362,10.65477 -3.45545,3.45546 -6.34735,7.34219 -8.636,11.59139 -1.10595,0.27517 -2.28864,0.61384 -3.11943,0.87313 0.30162,-0.62442 0.61648,-1.23825 0.94191,-1.84944 z m 70.92955,60.81977 -1.45257,1.03188 -9.94568,-14.02027 2.90512,-2.06111 c 0.40481,-0.28839 0.84931,-0.39158 1.33086,-0.30956 0.48154,0.082 0.86518,0.32544 1.15358,0.73025 l 3.14854,4.43706 c 0.24077,0.34131 0.35454,0.62971 0.33602,0.86784 -0.0185,0.23812 -0.082,0.47625 -0.1905,0.70908 0.23019,-0.0635 0.47096,-0.0503 0.72496,0.045 0.254,0.0952 0.53446,0.35983 0.84138,0.7911 l 3.31522,4.67254 c 0.14023,0.1958 0.29634,0.34925 0.47361,0.46038 0.17727,0.11112 0.38364,0.2196 0.61648,0.33073 l -1.49225,1.05833 c -0.17992,-0.0873 -0.36777,-0.20108 -0.56356,-0.33867 -0.1958,-0.13758 -0.35719,-0.29633 -0.48684,-0.47889 l -3.72004,-5.24404 -1.45256,1.03187 4.45823,6.28386 z m -18.39913,-1.09802 c 0.17463,0.20902 0.28575,0.57679 0.33867,1.10331 l 0.51329,5.19907 c 0.0503,0.49477 -0.082,0.93133 -0.39158,1.30968 -0.30956,0.37836 -0.71173,0.59002 -1.2065,0.6403 l -3.54542,0.35189 -1.69333,-17.10796 3.54541,-0.35189 c 0.49478,-0.0476 0.93134,0.082 1.30969,0.39158 0.37836,0.30956 0.59002,0.71173 0.64029,1.2065 l 0.53446,5.41602 c 0.0423,0.4154 -0.005,0.72231 -0.13758,0.92075 -0.13494,0.19844 -0.30692,0.37306 -0.51594,0.52388 0.23019,0.0582 0.43392,0.1905 0.60854,0.39952 z m 0.7329,-9.34773 1.66952,-0.62441 5.39221,14.43566 1.66952,-0.62441 -5.39221,-14.43567 1.66952,-0.62442 5.13027,13.73717 c 0.12965,0.3466 0.18256,0.69585 0.15875,1.0451 -0.0238,0.3519 -0.10583,0.68263 -0.24606,0.99219 -0.14023,0.30956 -0.33867,0.58738 -0.58738,0.83608 -0.25135,0.24871 -0.54768,0.43657 -0.89429,0.56621 -0.3466,0.12965 -0.69321,0.18256 -1.0451,0.15875 -0.3519,-0.0238 -0.68263,-0.10583 -0.99219,-0.24606 -0.30956,-0.14023 -0.58737,-0.33602 -0.83608,-0.58738 -0.24871,-0.2487 -0.43657,-0.54768 -0.56621,-0.89429 l -5.13027,-13.73716 z m 13.66044,-5.02179 c -0.28311,-0.23812 -0.49742,-0.51594 -0.65088,-0.83344 -0.15081,-0.3175 -0.24342,-0.64558 -0.26987,-0.98425 -0.0291,-0.33866 0.005,-0.67733 0.10318,-1.016 0.0979,-0.33866 0.26459,-0.64823 0.50271,-0.93133 0.23813,-0.2831 0.51594,-0.49742 0.83344,-0.65088 0.3175,-0.15081 0.64558,-0.24341 0.98425,-0.26987 0.33867,-0.0291 0.67733,0.005 1.016,0.10319 0.33867,0.0979 0.64823,0.26458 0.93133,0.50271 l 1.48961,1.25941 -1.15094,1.35996 -2.05846,-1.74096 -1.15094,1.35996 10.40607,8.7974 1.15093,-1.35996 -4.52173,-3.82323 -0.49741,0.58737 -1.35996,-1.15093 1.64835,-1.94998 5.31284,4.49262 c 0.2831,0.23813 0.50006,0.51594 0.65087,0.83344 0.15081,0.3175 0.24077,0.64558 0.26988,0.98425 0.0291,0.33867 -0.005,0.67733 -0.10319,1.016 -0.0979,0.33867 -0.26458,0.64823 -0.50271,0.93133 -0.23812,0.28311 -0.51594,0.50007 -0.83344,0.65088 -0.3175,0.15346 -0.64558,0.24341 -0.98425,0.26987 -0.33866,0.0291 -0.67733,-0.005 -1.016,-0.10318 -0.33866,-0.0979 -0.64823,-0.26459 -0.93133,-0.50271 l -9.26571,-7.83432 z M 157.66216,64.1471 c 1.22502,0 2.45004,-0.60325 3.24644,-1.46315 v 3.20146 c -1.06892,0.47625 -2.14048,0.82285 -3.32581,0.82285 -4.12221,0 -7.1755,-3.34698 -7.1755,-7.15433 0,-3.80735 2.93687,-7.37394 7.23371,-7.37394 1.14829,0 2.27541,0.29369 3.2676,0.80434 v 3.21997 c -0.7964,-0.91545 -2.0029,-1.46314 -3.22792,-1.46314 -2.74108,0 -4.318,2.3786 -4.318,4.75721 0,2.3786 1.63248,4.64608 4.29684,4.64608 z m -8.22854,-6.22036 v 2.34156 h -4.14337 v 6.07484 h -2.8575 V 52.54776 h 7.27339 v 2.34157 h -4.41325 v 3.03741 h 4.14338 z m -2.79664,81.31175 0.54504,-3.5216 1.76212,0.27252 -0.81756,5.28108 -5.28108,-0.81756 0.27252,-1.75948 5.55625,-12.93019 -1.7145,-0.26458 -0.54504,3.5216 -1.75948,-0.27252 0.81756,-5.28108 5.28108,0.81756 -0.27252,1.75948 -5.55625,12.93019 1.7145,0.26458 z m -9.93246,-2.58762 1.41023,-3.2729 1.63777,0.70379 -2.11402,4.91067 -4.90802,-2.11402 6.79979,-15.79034 1.63512,0.7038 -6.09335,14.15256 1.63777,0.70379 z m -7.10407,-10.99344 -4.72545,6.08542 -1.40759,-1.09273 8.99054,-11.58346 c 0.22755,-0.29104 0.49478,-0.51859 0.80698,-0.68527 0.31221,-0.16669 0.635,-0.26988 0.97367,-0.31221 0.33867,-0.0423 0.67733,-0.0238 1.02129,0.0609 0.34131,0.082 0.65881,0.23813 0.94986,0.46302 0.29104,0.22755 0.51858,0.49477 0.68527,0.80698 0.16404,0.30957 0.26987,0.635 0.31221,0.97367 0.0423,0.33867 0.0212,0.67733 -0.0609,1.02129 -0.082,0.34131 -0.23812,0.65881 -0.46302,0.94986 l -8.99054,11.58345 -1.40758,-1.09273 4.72545,-6.08541 -1.40758,-1.09273 z m -8.88206,-4.68577 -2.13259,1.651 1.09013,1.40758 4.68313,-3.62479 -1.09008,-1.40758 c -0.30428,-0.39423 -0.42598,-0.83344 -0.36513,-1.31763 0.0608,-0.48419 0.2884,-0.87842 0.68263,-1.18269 l 4.0931,-3.1697 c 0.29104,-0.2249 0.60854,-0.381 0.9525,-0.46303 0.34131,-0.082 0.68262,-0.10054 1.02129,-0.0582 0.33867,0.0423 0.66146,0.14816 0.97102,0.3122 0.30956,0.16669 0.57944,0.39423 0.80434,0.68528 0.22489,0.29104 0.381,0.60854 0.46302,0.9525 0.082,0.34131 0.10054,0.68262 0.0582,1.02129 -0.0423,0.33866 -0.14816,0.66146 -0.3122,0.97366 -0.16669,0.31221 -0.39423,0.57944 -0.68527,0.80434 l -1.54253,1.19327 -1.09008,-1.40759 2.13254,-1.651 -1.09008,-1.40758 -4.68313,3.62479 1.09009,1.40759 c 0.30427,0.39423 0.42598,0.83343 0.36512,1.31762 -0.0608,0.48419 -0.28839,0.87842 -0.68262,1.18269 l -4.09311,3.16971 c -0.29104,0.22489 -0.60854,0.381 -0.9525,0.46302 -0.34131,0.082 -0.68262,0.10054 -1.02134,0.0582 -0.33867,-0.0423 -0.66146,-0.14817 -0.97367,-0.31221 -0.30956,-0.16669 -0.57943,-0.39423 -0.80433,-0.68527 -0.2249,-0.29104 -0.381,-0.60854 -0.46302,-0.9525 -0.082,-0.34132 -0.10319,-0.68263 -0.0582,-1.02129 0.0423,-0.33867 0.14817,-0.66146 0.31221,-0.97367 0.16669,-0.30956 0.39423,-0.57944 0.68527,-0.80433 l 1.54257,-1.19328 1.09009,1.41023 z m 9.35038,-12.83229 c -2.13784,1.24354 -3.40784,1.93939 -5.33665,2.20398 -0.8546,0.11641 -4.81277,-0.0106 -6.08811,-0.0556 -0.24871,-0.008 -0.39688,-0.0132 -0.39688,-0.0132 l 1.36795,-1.15093 c 0,0 2.24631,-0.0212 3.29671,-0.23284 1.05304,-0.21166 7.51152,-2.71727 7.51152,-2.71727 l 1.73831,-0.38894 c 0,0 -0.16669,1.23296 -2.09285,2.35215 z M 100.1073,83.44051 c -0.30956,-0.45773 -0.34131,-1.42875 -0.0661,-1.99496 0.18256,-0.3757 0.72231,-0.60589 1.2409,-0.78316 0.11112,-0.037 0.2196,-0.0741 0.32544,-0.10848 0.0635,-0.0212 0.1852,-0.0529 0.1852,-0.0476 -0.005,0.0317 0.0238,0.0714 0.0741,0.11907 0.0873,0.082 0.24871,0.1852 0.44714,0.29368 0.25665,0.14288 0.57415,0.29898 0.87313,0.43657 0.53181,0.24606 1.15358,0.15081 1.57162,-0.21167 0.12436,-0.10848 0.23284,-0.23548 0.31486,-0.38894 0.0794,-0.14816 0.11641,-0.29369 0.0873,-0.42333 -0.0132,-0.0503 -0.0318,-0.10054 -0.0503,-0.14817 -0.17727,-0.45244 -0.61383,-0.78316 -1.0795,-0.84137 -0.42863,-0.0529 -0.78052,-0.11377 -1.0795,-0.18257 -0.1905,-0.045 -0.35719,-0.0899 -0.50006,-0.14022 -0.20902,-0.0714 -0.37042,-0.14553 -0.49213,-0.2249 -0.68527,-0.44715 -0.11112,-1.00542 0.56621,-1.4261 0.26194,-0.1614 0.5371,-0.30428 0.75935,-0.41011 0.26988,-0.12964 0.46832,-0.20637 0.47096,-0.20902 0.0556,-0.0212 0.12965,-0.045 0.21431,-0.0714 h 0.003 c 0.57415,-0.17991 1.75154,-0.47889 2.97392,-0.762 1.15358,-0.26987 2.34685,-0.52387 3.10885,-0.65087 -0.0741,0.0741 -0.14552,0.14287 -0.20637,0.20108 -0.34132,0.33073 -0.39952,0.38629 -0.44715,0.47625 -0.12171,0.22225 -0.13229,0.46831 -0.0265,0.69321 0.23548,0.51329 1.82298,0.88635 3.55865,1.24619 0,0 5.11969,1.01335 5.99016,2.38125 0.24871,0.39158 0.30957,0.8255 0.18521,1.32821 -0.10054,0.4101 -1.64041,1.76212 -2.76489,2.74637 -2.74373,2.40771 -4.39738,3.95287 -4.23598,5.1144 0.037,0.25664 0.17727,0.61118 0.65087,0.83608 0.36248,0.17198 0.95515,0.24342 2.04788,0.24342 0.37041,0 0.76464,-0.008 1.14829,-0.0159 0.37835,-0.008 0.76729,-0.0159 1.12448,-0.0159 0.64823,0 1.04246,0.0291 1.27794,0.0635 -0.62707,0.50535 -2.21192,1.03981 -2.88132,1.2647 -0.27252,0.0926 -0.508,0.17198 -0.68527,0.24077 -0.59266,0.22755 -1.22237,0.44715 -1.82827,0.44715 -0.381,0 -0.73819,-0.0847 -1.09802,-0.26194 -1.10331,-0.54239 -1.86267,-2.05052 -1.65894,-3.29406 0.10848,-0.63765 0.74348,-2.17487 1.10596,-2.57175 0.61384,-0.66675 1.21973,-1.23296 1.70656,-1.68804 0.93928,-0.87577 1.52136,-2.39448 0.79375,-2.50561 0,0 -1.59014,-0.62706 -7.64116,1.4605 -0.90488,0.31221 -1.77271,0.59532 -2.43681,0.76465 -0.18257,0.0476 -0.35455,0.0847 -0.50271,0.11377 -0.2249,0.0397 -0.45773,0.0609 -0.68527,0.0609 -0.46038,0 -0.88371,-0.082 -1.26207,-0.23284 -0.16933,-0.0661 -0.33073,-0.14287 -0.47625,-0.23812 -0.16933,-0.10848 -0.32014,-0.23548 -0.45508,-0.37836 -0.0873,-0.0926 -0.17198,-0.1905 -0.24342,-0.29898 z m -0.52917,13.86152 c 0.0132,-1.97379 0.13229,-3.92906 0.36248,-5.86581 0.0132,-0.11906 0.0265,-0.23812 0.0397,-0.35983 0.0291,-0.23548 0.0635,-0.47096 0.0979,-0.70644 0.0291,-0.20373 0.0556,-0.40746 0.0847,-0.61119 0.0265,-0.17462 0.0556,-0.3466 0.0847,-0.51858 0.0423,-0.26194 0.0847,-0.52123 0.12964,-0.78317 0.0238,-0.13494 0.0503,-0.26723 0.0767,-0.40216 0.0556,-0.29369 0.10848,-0.58738 0.16934,-0.88107 0.0238,-0.12171 0.0529,-0.24341 0.0794,-0.36777 0.0635,-0.29898 0.127,-0.6006 0.19579,-0.89694 0.0132,-0.0609 0.0291,-0.12435 0.045,-0.1852 0.4789,0.15345 0.99748,0.23548 1.54517,0.23548 0.28839,0 0.57944,-0.0265 0.86519,-0.0741 -0.83609,3.44752 -1.29911,6.98236 -1.38113,10.58069 -0.89429,0.31221 -1.69069,0.58473 -2.39183,0.83079 z m -1.03187,2.11138 c -1.12184,0.15875 -2.32834,0.32544 -3.69889,0.51594 -0.003,0 -0.005,-0.003 -0.003,-0.005 1.13507,-0.40481 2.30982,-0.76729 3.68301,-1.15093 0.17197,-0.0476 0.34925,-0.0979 0.52652,-0.14552 0.17198,-0.0476 0.34925,-0.0952 0.52652,-0.14288 h 0.003 c 0.72761,-0.19844 1.51342,-0.40481 2.37332,-0.62971 3.63008,-0.94456 8.61483,-2.20662 16.3777,-4.37885 0.44715,-0.12436 1.03982,-0.008 1.25942,-0.52917 -0.17198,-0.94192 0.88641,-1.09273 1.52934,-1.2991 1.53723,-0.49742 3.06388,-0.98161 4.61434,-1.42346 1.13771,-0.32544 2.28335,-0.92869 3.42635,-1.16681 1.44198,-0.29898 2.58234,-0.32809 3.5904,-1.59544 l -0.23284,-0.13494 c -1.36525,0.54504 -3.56129,1.7145 -4.98739,0.76729 -0.67733,-0.45243 -1.38377,-1.66687 -1.06098,-2.48973 0.24077,-0.62177 1.00277,-0.70379 1.52929,-0.93398 2.23838,-0.97631 4.43442,-2.17752 6.62252,-3.2676 4.62756,-2.30452 9.2419,-4.63021 13.85094,-6.96912 2.0955,-1.06098 4.47675,-2.28865 6.78127,-2.79136 0.64558,-0.14023 1.32292,-0.16933 1.9976,-0.10848 0.008,0.0185 0.0159,0.0397 0.0265,0.0582 0.55298,-0.0317 1.08744,-0.0423 1.54517,0.10054 1.18798,0.37307 0.77258,0.22225 3.25173,1.69334 0.045,0.0265 0.37571,0.26987 0.41539,0.29898 0.33867,0.25135 0.30692,0.21166 0.508,0.35983 0.27782,0.20373 0.47625,0.39952 0.66675,0.57679 0.18257,0.16933 0.37042,0.31221 0.37042,0.31221 l 4.699,3.53483 0.10848,0.0979 c 0.13229,0.11906 0.28575,0.25664 0.42598,0.39158 0.2196,0.21431 4.37885,4.36827 6.10923,6.92415 0.55033,0.85989 1.0451,2.19339 1.11919,2.81252 0.0344,0.29104 0.0767,0.58208 0.11906,0.86783 0.15875,1.03717 0.37571,2.04258 0.62971,3.0136 0.0185,0.0688 0.037,0.13759 0.0556,0.20373 0.0159,0.0635 0.0344,0.127 0.0529,0.1905 0.12435,0.45244 0.25664,0.89694 0.39422,1.3335 0.0212,0.0661 0.0423,0.12965 0.0635,0.1958 0.0212,0.0635 0.0397,0.127 0.0609,0.1905 l 0.005,0.0159 c 0.0265,0.0767 0.0503,0.15346 0.0767,0.23019 0.0159,0.0476 0.0318,0.0926 0.0476,0.13758 0.0238,0.0688 0.0476,0.13758 0.0714,0.20638 0.0238,0.0661 0.045,0.13493 0.0688,0.20108 0.0106,0.0318 0.0212,0.0609 0.0318,0.0926 0.0132,0.0397 0.0291,0.0794 0.0423,0.11907 0.0397,0.11377 0.082,0.22489 0.12171,0.33602 0.42068,1.16416 0.86783,2.27277 1.30439,3.31523 -0.008,0 -0.0132,-0.003 -0.0212,-0.003 0.43921,0.48154 1.27265,1.34144 1.73832,2.0029 1.06362,1.50812 1.41023,2.78077 3.94493,3.97404 0.1905,0.09 0.69057,0.0291 0.83873,0.41804 0.18521,0.48683 -0.25664,0.61383 -0.50006,0.65087 -4.2201,0.63765 -5.07471,-2.95804 -7.26546,-4.77308 -0.0794,-0.0503 -0.16404,-0.10583 -0.25135,-0.16669 -0.0847,-0.0582 -0.17198,-0.11641 -0.254,-0.17198 -0.0476,-0.0317 -0.0926,-0.0635 -0.13758,-0.0926 -0.0503,-0.0317 -0.0953,-0.0608 -0.13494,-0.0873 -0.0318,-0.0185 -0.0609,-0.037 -0.0873,-0.0503 -0.0873,-0.045 -0.13759,-0.0582 -0.127,-0.0106 0.0476,0.0476 0.0952,0.10055 0.14552,0.15611 0.0317,0.0344 0.0635,0.0741 0.0952,0.11112 0.0503,0.0582 0.0979,0.11642 0.14816,0.17992 0.0503,0.0609 0.10054,0.127 0.15082,0.19315 0.10054,0.13229 0.20372,0.26987 0.30691,0.41539 0.61913,0.86783 1.25942,1.93675 1.61925,2.58498 1.45521,2.62202 2.6379,2.35215 4.064,3.16706 0.127,0.0714 0.21961,0.20638 0.21961,0.3519 0,0.30427 -0.24871,0.55033 -0.55298,0.54504 -0.92869,-0.0185 -1.70657,-0.10054 -2.36802,-0.22225 -0.0794,-0.0159 -0.15875,-0.0291 -0.23548,-0.045 -0.0688,-0.0132 -0.13759,-0.0291 -0.20373,-0.0423 -0.0556,-0.0132 -0.10848,-0.0265 -0.16404,-0.0397 l -0.0212,-0.005 c -0.24342,-0.0609 -0.46831,-0.127 -0.67733,-0.19844 -0.0767,-0.0265 -0.15082,-0.0529 -0.2249,-0.0794 l -0.0132,-0.005 c -0.0661,-0.0264 -0.13229,-0.0503 -0.19579,-0.0767 -0.0688,-0.0291 -0.13494,-0.0556 -0.19844,-0.0847 -0.63764,-0.28311 -1.1086,-0.59796 -1.51606,-0.88371 -0.0741,-0.0503 -0.14552,-0.10054 -0.21696,-0.15081 -0.0741,-0.0529 -0.14817,-0.10054 -0.22225,-0.14817 -0.37835,-0.24871 -0.73819,-0.43921 -1.18269,-0.50006 -0.61912,-0.0873 -0.92604,1.18533 -2.4077,1.73037 -1.9738,0.72232 -2.86544,-0.11641 -3.88673,0.16405 -0.89694,0.2487 -2.53736,1.14564 -3.61157,1.36789 -0.3122,0.0635 -0.68791,0.42069 -2.29923,0.16404 -0.99747,-0.15875 -1.00806,-1.62983 -1.12183,-2.51883 -0.0529,-0.41804 0.11113,-0.87313 0.38365,-1.20385 0.38364,-0.46567 0.65881,-0.68263 0.30162,-0.68263 -0.72496,0 -0.99748,0.52652 -1.23031,-0.19315 -0.14288,-0.43391 0.20373,-1.7436 0.46037,-2.07168 0.11907,-0.15346 0.28311,-0.27252 0.45773,-0.38365 0.37042,-0.23548 0.79905,-0.43392 1.0213,-0.81492 0.19579,-0.33602 0.24341,-0.80168 0.36512,-1.34672 0.0952,-0.43128 0.23813,-0.91282 0.5371,-1.42082 0.37307,-0.64029 1.03982,-0.77787 1.02923,-0.889 -0.0291,-0.37041 -0.0212,-0.73554 -0.15081,-0.71966 0,0 -1.06098,0.26193 -2.39977,0.55033 -2.30452,0.49477 -4.37356,1.48167 -4.41325,1.21708 -0.0608,-0.4101 0.29898,-0.82814 0.46567,-1.25941 0.20373,-0.52917 0.22489,-0.80434 0.1905,-1.3679 -0.0265,-0.45508 0.0132,-2.8231 -0.35454,-3.09033 -0.28575,0.80962 -0.37042,2.02671 -0.87577,3.33904 -0.36513,0.94192 -0.87842,1.97644 -1.12184,2.54529 0.09,0.037 -2.56116,0.71438 -3.22791,1.42346 -0.0714,0.0741 2.02406,3.52954 2.02406,3.52954 0.86783,1.26206 0.0688,2.90248 -0.35454,4.29683 -0.0582,0.19315 -0.127,0.38365 -0.0741,0.5768 0.0265,0.10054 0.0714,0.17727 0.15611,0.19579 0.17462,0 0.34131,-0.0714 0.46302,-0.19844 1.05039,-1.0795 2.13519,-2.47385 1.75154,-4.07723 l -1.8071,-3.47398 c 0.38364,-0.24606 -0.037,-0.11906 0.11377,-0.20373 0.17991,-0.10054 1.87854,-0.57944 1.96585,-0.59002 0.1614,0.39158 2.46856,3.34698 2.43417,5.11704 -0.0317,1.78065 -2.12725,4.03754 -3.59834,5.70707 -0.61383,0.69585 -1.27,-0.0159 -2.42093,0.23018 -0.60855,0.12965 -2.98186,0.69321 -3.61157,0.79375 -3.50308,0.56621 -5.66737,0.12436 -7.52475,0.25665 -0.38364,0.0265 -0.20637,-0.43392 0.3519,-1.09538 0.33602,-0.39687 0.71967,-0.70114 0.93398,-1.18533 0.13758,-0.31221 -0.85461,-0.3175 -1.12183,-0.62971 -0.36513,-0.42333 -3.94759,-2.25954 -4.1328,-2.29923 -0.3757,-0.0794 -0.75141,-0.14287 0.49213,-0.49212 1.50283,-0.42334 3.89467,-0.0609 5.44512,-0.32809 1.10067,-0.1905 0.53975,1.79917 1.44992,2.38125 1.37848,0.88107 4.36827,-0.44714 4.81542,-2.02406 0.43391,-1.52135 0.0503,-2.59556 -1.1774,-3.30994 -0.32808,-0.1905 -1.17475,-0.18785 -3.74914,-2.16164 -0.0847,-0.0661 0.58472,-3.59569 0.43656,-3.55865 -0.75936,0.19579 -1.55575,2.94217 -2.10609,4.43177 -0.045,0.12171 -4.27566,0.48155 -4.40531,0.49213 -0.0529,0.005 0.29898,-0.79375 0.13494,-0.79375 -0.35983,0 -0.84402,0.0106 -1.40758,0.0344 -0.0529,0 -0.10584,0.005 -0.15875,0.008 -0.10848,0.005 -0.21961,0.0106 -0.33338,0.0159 -0.0397,0.003 -0.0767,0.005 -0.11642,0.005 -0.3175,0.0185 -0.65087,0.0397 -1.00012,0.0688 -0.0238,0 -0.0503,0.005 -0.0767,0.005 -0.14552,0.0106 -0.29369,0.0238 -0.4445,0.0397 -1.76212,0.15875 -3.76237,0.44715 -5.35781,0.94456 -0.24342,0.0767 -1.2065,1.61396 -1.50548,1.86002 0,0 -0.58208,0.33867 -1.46315,0.56092 -3.31787,0.83873 -11.22103,2.67494 -11.50678,3.02419 -0.13494,0.16668 -0.63764,-0.39423 -0.90223,-0.49213 -0.24341,-0.09 -0.59266,0.91281 -1.8071,1.99761 -0.09,0.082 -1.11654,1.15093 -1.66952,1.64306 -0.26459,0.23548 -0.46302,0.381 -0.62442,0.47625 -0.0476,0.0529 -3.05065,-0.20638 -3.62479,0.11906 -1.13771,0.64294 -1.90236,3.556 -3.4634,3.88673 -0.22225,0.0476 -0.46302,0.0423 -0.72231,-0.0318 -0.33867,-0.0952 -1.56369,-0.51594 -2.16165,-0.80169 h -0.003 c -0.14288,-0.0714 -0.25136,-0.13229 -0.29898,-0.17991 -0.26194,-0.21432 -0.254,-0.56621 -0.10848,-0.97102 0.23019,-0.65353 0.80698,-1.44463 1.16946,-2.05053 0.17727,-0.25135 0.30956,-0.45243 0.49477,-0.54768 0.037,-0.0185 0.0741,-0.0344 0.11377,-0.045 2.40771,-0.61384 1.27,-3.36286 4.71488,-4.01638 1.55045,-0.29104 2.38918,-1.86002 2.38918,-1.86002 -0.16404,-0.10848 2.29394,-0.14023 3.302,-0.4101 0.82021,-0.21961 2.9845,-0.71702 3.18559,-0.762 16.39363,-3.82059 -1.50284,-0.65881 -3.06388,-0.46831 l -3.10356,0.28839 c -0.15081,-0.0423 -0.29633,-0.0767 -0.30163,-0.16404 0,0 -0.0159,-0.4789 0.0423,-0.49213 0.0106,-0.003 0.44979,-1.11918 -0.0847,-1.44991 0,0 -0.32808,-0.005 -0.73554,-0.0132 -0.65352,-0.0106 -1.51342,-0.0265 -1.54517,-0.0185 1.82298,-0.43392 0.74877,-0.20638 2.02671,-0.49742 0.13494,-0.0318 0.29369,-0.0661 0.48419,-0.11112 8.97207,-2.032 17.98113,-3.88144 26.92934,-6.00605 2.37331,-0.56356 4.80484,-0.93927 7.14375,-1.66158 l -0.0344,-0.26458 c -9.67052,1.35466 -19.2405,3.68564 -28.95076,4.71752 v -0.23283 c 5.37109,-1.02394 10.68128,-2.38919 16.05496,-3.35757 8.01159,-1.43933 16.08403,-2.64054 24.13265,-3.87614 5.25198,-0.80698 10.58862,-1.78594 15.88294,-2.23838 l 0.16668,0.36513 c -0.35189,0.43656 -0.84931,0.63764 -1.33085,0.89693 -0.0688,0.10848 -0.0741,0.24871 0.0318,0.33073 0.67469,-0.0714 3.68829,0.12171 3.69094,-0.59531 -1.11919,-1.06098 -1.39436,-1.6166 -3.02154,-1.46314 -2.53736,0.23283 -5.08794,0.60854 -7.61471,0.92868 -14.54415,1.86532 -29.18354,3.86821 -43.64038,6.31825 -10.2209,1.73038 -14.48334,2.42623 -18.95215,3.0824 -0.77259,0.11377 -1.55311,0.22489 -2.37067,0.34131 h -0.003 c -0.17462,0.0238 -0.34925,0.0503 -0.52652,0.0741 -0.17462,0.0238 -0.34925,0.0503 -0.52652,0.0741 z m 43.83622,5.70441 c 5.69118,-0.43656 7.22312,-0.6006 7.52475,-0.24606 0.30162,0.35454 0.87577,1.86002 0.84666,2.32569 -0.0265,0.46567 -1.39435,1.14829 -1.86002,1.09537 -0.46567,-0.0556 -1.23031,-1.53193 -1.53194,-1.94204 -0.30162,-0.4101 -4.65137,-0.98425 -4.65137,-0.98425 l -0.32808,-0.24606 z m -40.47072,3.46075 c 0.0661,-0.23018 0.53445,-0.45243 1.11654,-0.61647 1.02923,-0.29369 2.40506,-0.41011 2.51089,-0.0767 -0.30956,0.75935 -0.73025,1.22502 -1.17739,1.4896 -0.0344,0.0423 -0.0688,0.0847 -0.0979,0.12171 -0.17727,0.24606 -0.50535,0.82021 -0.6006,0.86254 -0.0185,0.008 -0.0397,0.0159 -0.0582,0.0212 -0.0926,0.0317 -0.20373,0.0529 -0.2831,0.0185 -0.0952,-0.0423 -1.06628,-0.30163 -1.16153,-0.38365 -0.0952,-0.082 -0.15081,-0.0688 -0.10847,-0.12435 0.0159,-0.0238 0.21695,-0.21961 0.44185,-0.44186 -0.4154,-0.21431 -0.66675,-0.55827 -0.57679,-0.87312 z m -1.35996,-0.84666 c -0.0344,-0.16669 -0.0635,-0.33867 -0.0953,-0.508 -0.0238,-0.13494 -0.0529,-0.26723 -0.0767,-0.40217 -0.045,-0.26194 -0.0873,-0.52123 -0.12965,-0.78317 -0.0291,-0.17197 -0.0582,-0.34395 -0.0847,-0.51858 -0.0318,-0.20373 -0.0582,-0.40746 -0.0847,-0.61119 -0.0317,-0.23548 -0.0661,-0.46831 -0.0979,-0.70379 -0.0159,-0.11906 -0.0265,-0.23812 -0.0423,-0.35983 -0.14023,-1.18004 -0.24077,-2.37067 -0.30162,-3.56658 0.24606,-0.0212 0.50006,-0.0423 0.76729,-0.0662 0.50271,-0.045 1.04246,-0.0926 1.60866,-0.14817 0.10055,2.12461 0.33602,4.2254 0.70115,6.29709 -0.87313,0.22754 -1.77535,0.635 -2.16429,1.36789 z m 0.09,6.69396 c -0.46302,0.59795 -1.12448,-0.0635 -1.82034,-0.43921 -0.17198,-0.10848 -0.55298,-0.29369 -0.62177,-0.39688 0.28311,-1.05039 0.74348,-2.36008 1.89971,-3.00037 0.1561,-0.0847 0.32015,-0.1614 0.50006,-0.22225 0.15875,-0.0529 0.33073,-0.0873 0.508,-0.11642 0.0688,-0.0106 0.13494,-0.0238 0.20373,-0.0318 h 0.1614 c 0.80169,0.0318 1.02923,0.51065 0.93133,0.84931 -0.0979,0.33867 -0.36777,0.90223 -0.66939,1.47638 -0.11378,0.2196 -0.23548,0.43921 -0.3519,0.64558 -0.12965,0.23019 -0.254,0.4445 -0.36513,0.63236 -0.17462,0.29633 -0.3175,0.51858 -0.38364,0.6006 z"
       fill="#ffffff"
       id="path849"
       style="stroke-width:0.264583" />
    <path
       d="m 172.07137,102.73657 c -0.16404,0 -0.76465,0.7673 -0.93133,0.90223 -0.3519,0.29369 -0.93134,0.93134 -1.12184,1.3679 0.35455,0.2196 1.61132,-0.19844 2.24367,-0.49213 l -0.0503,0.082 c 0.17727,-0.11907 0.14552,-0.60325 0.21431,-1.30175 0,-0.17463 -0.13229,-0.55828 -0.35719,-0.55828 z"
       fill="#ffffff"
       id="path851"
       style="stroke-width:0.264583" />
    <path
       d="m 149.90987,87.59712 c 0,0 13.15773,-1.86267 19.50773,-2.794 0.26723,-0.0318 1.09273,-0.11377 0.95515,-0.57944 -0.16405,-0.10054 -0.36513,-0.16669 -0.56357,-0.13229 l -19.00766,3.09298 z"
       fill="#ffffff"
       id="path853"
       style="stroke-width:0.264583" />
    <path
       d="m 157.65423,79.08547 c 0.254,-0.0688 0.83872,-0.11906 0.76729,-0.49742 -1.2065,-0.23283 -6.72571,1.22503 -8.10948,1.69334 -0.61648,0.20902 -0.97896,0.0661 -1.59809,0 -0.47095,0.29633 -0.94456,0.59266 -1.29645,1.02923 l 0.13493,0.13229 c 3.35757,-0.65088 6.81038,-1.44198 10.1018,-2.36008 z"
       fill="#ffffff"
       id="path855"
       style="stroke-width:0.264583" />
    <path
       d="m 172.7831,92.74855 c 0,0 -0.89694,-0.0159 -1.0795,0.71438 -0.18256,0.73025 -0.8599,0.67733 -1.25148,0.78052 -0.39158,0.10583 -4.77044,1.22502 -4.77044,1.22502 0,0 6.93209,-0.23283 7.63588,-0.12965 0.70379,0.10319 0.75671,1.17211 0.75671,1.17211 0,0 0.49477,-0.75671 0.52123,-1.17211 0.0264,-0.41804 -0.12965,-0.88635 -0.39159,-1.53722 -0.25929,-0.65088 -1.42081,-1.05305 -1.42081,-1.05305 z"
       fill="#ffffff"
       id="path857"
       style="stroke-width:0.264583" />
    <path
       d="m 116.51686,62.48551 c 4.56666,-4.56671 9.88478,-8.15181 15.80351,-10.65477 6.12511,-2.59027 12.6365,-3.90525 19.34898,-3.90525 6.71248,0 13.22387,1.31498 19.34898,3.90525 5.91873,2.50296 11.23685,6.08806 15.80356,10.65477 4.56671,4.56671 8.15181,9.88484 10.65477,15.80357 0.71967,1.69862 1.33615,3.42899 1.85738,5.18318 0.9816,0.35719 1.9341,0.79904 2.83633,1.32292 -0.0106,-0.0423 -0.0238,-0.0873 -0.0344,-0.13229 -0.0476,-0.18521 -0.10054,-0.37042 -0.14816,-0.55563 -0.0609,-0.22489 -0.11906,-0.44979 -0.18256,-0.67469 -0.0794,-0.28045 -0.16405,-0.56091 -0.24871,-0.83872 -0.037,-0.12436 -0.0741,-0.25136 -0.11113,-0.37307 -0.508,-1.64306 -1.10066,-3.26495 -1.778,-4.86304 -0.61648,-1.45785 -1.29646,-2.87602 -2.03729,-4.26244 -0.0503,-0.0952 -0.0979,-0.1905 -0.15081,-0.2831 -0.037,-0.0688 -0.0767,-0.13494 -0.11113,-0.20108 -1.56898,-2.86279 -3.39725,-5.56684 -5.48216,-8.09096 -1.06363,-1.28852 -2.19075,-2.52942 -3.38402,-3.72269 -1.19328,-1.19327 -2.43417,-2.32304 -3.72269,-3.38402 -2.52413,-2.08227 -5.22552,-3.91319 -8.08831,-5.47952 -0.0688,-0.037 -0.13494,-0.0767 -0.20373,-0.11377 -0.0952,-0.0529 -0.19315,-0.10054 -0.2884,-0.15081 -1.38377,-0.73819 -2.80194,-1.41817 -4.25715,-2.03465 -1.59543,-0.67469 -3.21733,-1.26735 -4.86039,-1.778 -0.12436,-0.0397 -0.25136,-0.0741 -0.37571,-0.11112 -0.27781,-0.0847 -0.55827,-0.16934 -0.83608,-0.24607 -0.2249,-0.0635 -0.44979,-0.12171 -0.67469,-0.18256 -0.18521,-0.0503 -0.37042,-0.10054 -0.55563,-0.14817 -0.27781,-0.0714 -0.55827,-0.13758 -0.83872,-0.20373 -0.13494,-0.0317 -0.27253,-0.0661 -0.40746,-0.0979 -0.29898,-0.0688 -0.59796,-0.13229 -0.89694,-0.19579 -0.12171,-0.0265 -0.24342,-0.0529 -0.36777,-0.0794 -0.29104,-0.0582 -0.58473,-0.11377 -0.87577,-0.16669 -0.13494,-0.0264 -0.26988,-0.0529 -0.40746,-0.0767 -0.25929,-0.045 -0.51858,-0.0873 -0.77788,-0.12965 -0.17462,-0.0291 -0.34925,-0.0582 -0.52387,-0.0847 -0.20108,-0.0318 -0.40481,-0.0556 -0.6059,-0.0847 -0.23547,-0.0317 -0.47095,-0.0688 -0.70908,-0.0979 -0.11906,-0.0159 -0.23812,-0.0265 -0.35719,-0.0397 -2.04523,-0.24077 -4.11427,-0.36512 -6.20448,-0.36512 -2.0902,0 -4.1566,0.12435 -6.20447,0.36512 -0.11907,0.0132 -0.23813,0.0265 -0.35719,0.0397 -0.23548,0.0291 -0.47096,0.0635 -0.70909,0.0979 -0.20372,0.0291 -0.40481,0.0556 -0.60854,0.0847 -0.17462,0.0265 -0.34925,0.0582 -0.52387,0.0847 -0.25929,0.0423 -0.51859,0.082 -0.77788,0.12965 -0.13493,0.0238 -0.26987,0.0503 -0.40746,0.0767 -0.29368,0.0556 -0.58472,0.10848 -0.87577,0.16669 -0.1217,0.0238 -0.24341,0.0529 -0.36777,0.0794 -0.29898,0.0635 -0.6006,0.127 -0.89693,0.19579 -0.13494,0.0317 -0.27253,0.0661 -0.40746,0.0979 -0.28046,0.0662 -0.56092,0.1323 -0.83873,0.20373 -0.18521,0.0476 -0.37042,0.0979 -0.55298,0.14817 -0.2249,0.0609 -0.44979,0.11906 -0.67469,0.18256 -0.28046,0.0794 -0.56092,0.16404 -0.83873,0.24871 -0.12435,0.037 -0.25135,0.0741 -0.37306,0.11113 -1.64306,0.508 -3.26496,1.10066 -4.86304,1.778 -1.45521,0.61648 -2.87338,1.29645 -4.25715,2.03464 -0.0952,0.0503 -0.19314,0.10054 -0.28839,0.15081 -0.0688,0.037 -0.13494,0.0767 -0.20373,0.11378 -2.86279,1.56897 -5.56419,3.39725 -8.08826,5.47952 -1.28852,1.06362 -2.52942,2.19339 -3.72269,3.38402 -1.19327,1.19062 -2.32304,2.43416 -3.38402,3.72268 -2.08227,2.52413 -3.91319,5.22817 -5.48217,8.08832 -0.037,0.0688 -0.0767,0.13493 -0.11112,0.20108 -0.0503,0.0953 -0.10054,0.1905 -0.15081,0.28575 -0.32544,0.60854 -0.6403,1.22502 -0.94192,1.84944 0.83079,-0.25929 2.01348,-0.59796 3.11944,-0.87313 2.28864,-4.24921 5.18054,-8.13593 8.636,-11.59139 z"
       fill="#001d46"
       id="path859"
       style="stroke-width:0.264583" />
    <path
       d="m 100.40636,100.2098 c -0.26723,0.0238 -0.51859,0.045 -0.7673,0.0661 0.0582,1.19592 0.1614,2.3839 0.30163,3.56658 0.0132,0.11907 0.0265,0.24077 0.0423,0.35984 0.0291,0.23548 0.0635,0.47095 0.0979,0.70379 0.0291,0.20373 0.0556,0.40746 0.0847,0.61119 0.0264,0.17197 0.0556,0.34395 0.0847,0.51858 0.0423,0.26194 0.0847,0.52387 0.12965,0.78317 0.0238,0.13493 0.0503,0.26722 0.0767,0.40216 0.0318,0.16934 0.0635,0.34131 0.0953,0.51065 0.38893,-0.7329 1.29116,-1.143 2.16429,-1.37054 -0.36513,-2.07169 -0.60061,-4.17513 -0.70115,-6.29709 -0.56356,0.0529 -1.10596,0.10319 -1.60866,0.14817 z"
       fill="#001d46"
       id="path861"
       style="stroke-width:0.264583" />
    <path
       d="m 197.47931,116.98968 c -2.50296,5.91873 -6.08806,11.23685 -10.65477,15.80356 -4.56671,4.56671 -9.88484,8.15181 -15.80357,10.65477 -6.1251,2.59027 -12.63649,3.90525 -19.34897,3.90525 -6.71248,0 -13.22388,-1.31498 -19.34898,-3.90525 -5.91873,-2.50296 -11.23686,-6.08806 -15.80349,-10.65477 -4.3471,-4.3471 -7.79991,-9.37154 -10.2817,-14.94896 -0.27517,0.0873 -0.56886,0.14023 -0.89165,0.14023 -0.27517,0 -0.55562,-0.0397 -0.83608,-0.11906 -0.008,0 -0.47361,-0.19844 -1.03717,-0.43392 0.0662,0.1614 0.12965,0.32544 0.19844,0.48684 0.61648,1.4552 1.29646,2.87337 2.03464,4.25714 0.0503,0.0952 0.10055,0.19315 0.15082,0.2884 0.037,0.0688 0.0741,0.13494 0.11112,0.20108 1.56898,2.86279 3.39725,5.56683 5.48217,8.08831 1.06362,1.28852 2.19339,2.52942 3.38666,3.72269 1.19327,1.19327 2.43417,2.32304 3.72269,3.38402 2.52669,2.08492 5.23073,3.91584 8.09617,5.48481 0.0635,0.0344 0.127,0.0714 0.19315,0.10848 0.0979,0.0529 0.19844,0.10319 0.29633,0.15611 1.38113,0.73819 2.79665,1.41552 4.24921,2.02935 1.59544,0.67469 3.21733,1.26736 4.8604,1.77536 0.127,0.0397 0.25664,0.0767 0.38364,0.11377 0.27781,0.0847 0.55298,0.16668 0.83079,0.24606 0.22754,0.0635 0.45509,0.12435 0.68263,0.18521 0.18256,0.0476 0.36248,0.10054 0.54504,0.14552 0.28046,0.0714 0.56356,0.14023 0.84667,0.20637 0.13229,0.0318 0.26723,0.0662 0.39952,0.0979 0.29898,0.0688 0.60325,0.13229 0.90487,0.19579 0.11906,0.0265 0.24077,0.0529 0.35984,0.0767 0.29104,0.0582 0.58472,0.11377 0.87841,0.16933 0.13494,0.0238 0.26988,0.0529 0.40481,0.0767 0.2593,0.045 0.52123,0.0873 0.78053,0.12965 0.17462,0.0291 0.3466,0.0582 0.52122,0.0847 0.20373,0.0317 0.40746,0.0582 0.61119,0.0847 0.23548,0.0318 0.46831,0.0662 0.70379,0.0979 0.11907,0.0159 0.24077,0.0265 0.35984,0.0423 2.04523,0.24077 4.11427,0.36513 6.20183,0.36513 2.08756,0 4.1566,-0.12436 6.20183,-0.36513 0.11907,-0.0132 0.24077,-0.0265 0.35984,-0.0423 0.23548,-0.0291 0.47096,-0.0635 0.70643,-0.0979 0.20373,-0.0291 0.40746,-0.0556 0.61119,-0.0847 0.17463,-0.0265 0.34661,-0.0556 0.52123,-0.0847 0.25929,-0.0423 0.52123,-0.082 0.78052,-0.12965 0.13494,-0.0238 0.26988,-0.0503 0.40481,-0.0767 0.29369,-0.0556 0.58738,-0.10848 0.87842,-0.16933 0.12171,-0.0238 0.24077,-0.0529 0.35983,-0.0767 0.30163,-0.0635 0.60325,-0.127 0.90488,-0.19579 0.13494,-0.0317 0.26723,-0.0661 0.40217,-0.0979 0.2831,-0.0661 0.56356,-0.13493 0.84402,-0.20637 0.18256,-0.0476 0.36512,-0.0979 0.54768,-0.14552 0.22755,-0.0609 0.45509,-0.12171 0.68263,-0.18521 0.27781,-0.0794 0.55298,-0.1614 0.82814,-0.24342 0.12965,-0.0397 0.25665,-0.0741 0.3863,-0.11377 1.64306,-0.508 3.26495,-1.10066 4.86039,-1.77535 1.45256,-0.61384 2.86809,-1.29381 4.24921,-2.02936 0.0979,-0.0529 0.19844,-0.10318 0.29633,-0.1561 0.0661,-0.0344 0.12965,-0.0714 0.19315,-0.10848 2.86544,-1.56898 5.57212,-3.3999 8.0989,-5.48481 1.28852,-1.06363 2.52941,-2.1934 3.72268,-3.38402 1.19327,-1.19327 2.3204,-2.43417 3.38402,-3.72269 2.08227,-2.52413 3.91319,-5.22817 5.48217,-8.09096 0.037,-0.0688 0.0767,-0.13494 0.11113,-0.20108 0.0503,-0.0952 0.10054,-0.1905 0.15081,-0.28575 0.73819,-1.38377 1.42081,-2.80459 2.03464,-4.25979 0.48155,-1.14036 0.92075,-2.29394 1.31763,-3.45811 -0.93663,0.47361 -1.92617,0.86784 -2.96333,1.1774 -0.17728,0.45244 -0.35719,0.90487 -0.54769,1.35466 z"
       fill="#001d46"
       id="path863"
       style="stroke-width:0.264583" />
    <path
       d="m 100.94346,85.72651 c -0.0132,0.0609 -0.0318,0.12436 -0.045,0.18521 -0.0688,0.29898 -0.13229,0.59796 -0.19579,0.89694 -0.0265,0.12171 -0.0529,0.24341 -0.0794,0.36777 -0.0608,0.29104 -0.11377,0.58737 -0.16933,0.88106 -0.0238,0.13494 -0.0529,0.26723 -0.0767,0.40217 -0.045,0.25929 -0.0873,0.52123 -0.12964,0.78316 -0.0291,0.17198 -0.0582,0.34661 -0.0847,0.51859 -0.0317,0.20373 -0.0582,0.40746 -0.0847,0.61119 -0.0317,0.23547 -0.0661,0.47095 -0.0979,0.70643 -0.0159,0.11907 -0.0265,0.23813 -0.0397,0.35984 -0.22754,1.93675 -0.34925,3.89202 -0.36248,5.86581 0.70115,-0.24606 1.49754,-0.51858 2.39183,-0.83079 0.082,-3.59834 0.54769,-7.13582 1.38113,-10.58069 -0.28575,0.0476 -0.57679,0.0741 -0.86519,0.0741 -0.54769,0 -1.06892,-0.082 -1.54517,-0.23548 z"
       fill="#001d46"
       id="path865"
       style="stroke-width:0.264583" />
    <path
       d="m 209.16595,97.48724 c -0.0609,-0.52917 -0.14816,-1.05833 -0.26723,-1.5875 v -0.005 c -0.0556,-0.24606 -0.11641,-0.48948 -0.18256,-0.73025 -0.0212,-0.0794 -0.0476,-0.15875 -0.0688,-0.23548 -0.0476,-0.1614 -0.0952,-0.32544 -0.14817,-0.48419 -0.0291,-0.09 -0.0608,-0.17991 -0.0926,-0.26987 -0.0503,-0.14552 -0.10319,-0.29104 -0.15875,-0.43656 -0.0344,-0.0926 -0.0714,-0.18257 -0.10848,-0.27253 -0.0582,-0.14287 -0.11642,-0.2831 -0.17992,-0.42333 -0.037,-0.0873 -0.0767,-0.17198 -0.11641,-0.25929 -0.0688,-0.14817 -0.14023,-0.29369 -0.21167,-0.43921 -0.037,-0.0741 -0.0714,-0.14817 -0.11112,-0.22225 -0.0979,-0.18785 -0.19844,-0.37306 -0.30428,-0.55562 -0.0159,-0.0265 -0.0291,-0.0556 -0.0476,-0.0847 -0.12171,-0.20902 -0.24871,-0.4154 -0.381,-0.61648 -0.0397,-0.0609 -0.0794,-0.11906 -0.11906,-0.17727 -0.0953,-0.14023 -0.1905,-0.2831 -0.2884,-0.42069 -0.0529,-0.0714 -0.10583,-0.14287 -0.15875,-0.21431 -0.0926,-0.12171 -0.18256,-0.24342 -0.27781,-0.36513 -0.0582,-0.0741 -0.11642,-0.14552 -0.17727,-0.21695 -0.0953,-0.11642 -0.19315,-0.23019 -0.29104,-0.34396 -0.0609,-0.0688 -0.12171,-0.13759 -0.18257,-0.20638 -0.10583,-0.11641 -0.21431,-0.23018 -0.32279,-0.34396 -0.0582,-0.0609 -0.11377,-0.11906 -0.17198,-0.17991 -0.13493,-0.13759 -0.27252,-0.26988 -0.41275,-0.39952 -0.0344,-0.0318 -0.0661,-0.0662 -0.10318,-0.0979 -0.13759,-0.127 -0.27782,-0.24606 -0.41805,-0.36777 -0.0397,-0.0344 -0.0794,-0.0714 -0.1217,-0.10583 -0.0476,-0.0397 -0.0952,-0.0767 -0.14288,-0.11377 -0.127,-0.10584 -0.25665,-0.20902 -0.38629,-0.30957 -0.0106,-0.008 -0.0212,-0.0159 -0.0317,-0.0238 -0.0688,-0.0529 -0.13758,-0.10054 -0.20638,-0.15346 -0.12435,-0.0926 -0.2487,-0.18256 -0.3757,-0.27252 -0.008,-0.005 -0.0159,-0.0106 -0.0238,-0.0185 -0.0661,-0.0476 -0.13493,-0.0926 -0.20108,-0.13758 -0.12435,-0.0847 -0.25135,-0.16669 -0.37835,-0.24606 -0.0767,-0.0476 -0.15611,-0.0979 -0.23284,-0.14553 -0.13229,-0.0794 -0.26723,-0.15875 -0.40216,-0.23547 -0.0741,-0.0423 -0.14817,-0.0847 -0.22225,-0.127 -0.15875,-0.0873 -0.32015,-0.16934 -0.48155,-0.25136 -0.0529,-0.0265 -0.10318,-0.0556 -0.1561,-0.082 -0.21696,-0.10583 -0.43392,-0.20902 -0.65617,-0.30427 -0.0291,-0.0132 -0.0582,-0.0238 -0.0873,-0.037 -0.0159,-0.008 -0.0318,-0.0132 -0.0476,-0.0185 -0.17728,-0.0741 -0.35455,-0.14817 -0.53182,-0.21696 -0.0767,-0.0291 -0.1561,-0.0582 -0.23548,-0.0873 -0.14816,-0.0556 -0.29898,-0.10848 -0.44979,-0.15875 -0.0873,-0.0291 -0.17462,-0.0582 -0.26458,-0.0847 -0.14552,-0.045 -0.29104,-0.09 -0.43921,-0.13229 -0.09,-0.0265 -0.17992,-0.0503 -0.27252,-0.0741 -0.15081,-0.0397 -0.30163,-0.0767 -0.45244,-0.11377 -0.0873,-0.0212 -0.17462,-0.0423 -0.26194,-0.0609 -0.16933,-0.037 -0.34131,-0.0688 -0.51329,-0.10054 -0.0688,-0.0132 -0.14023,-0.0265 -0.20902,-0.0397 -0.24341,-0.0423 -0.48683,-0.0794 -0.73025,-0.10848 -0.0344,-0.005 -0.0661,-0.005 -0.10054,-0.0106 -0.21167,-0.0238 -0.42333,-0.0476 -0.63765,-0.0635 -0.0847,-0.008 -0.16668,-0.0106 -0.25135,-0.0159 -0.16404,-0.0106 -0.32808,-0.0185 -0.49477,-0.0265 -0.0953,-0.003 -0.19315,-0.005 -0.2884,-0.005 -0.14287,0 -0.2831,0 -0.42598,0 -0.16668,0 -0.33337,0.008 -0.5027,0.0132 -0.11907,0.005 -0.23548,0.008 -0.35455,0.0159 -0.17462,0.0106 -0.34925,0.0265 -0.52387,0.0423 -0.11113,0.0106 -0.2249,0.0185 -0.33602,0.0318 -0.19315,0.0212 -0.38629,0.0503 -0.57944,0.0794 -0.0952,0.0132 -0.1905,0.0265 -0.2831,0.0423 -0.2884,0.0476 -0.57679,0.10319 -0.86519,0.16669 -1.09008,0.24077 -2.1299,0.58473 -3.11415,1.01864 -0.49212,0.21696 -0.96837,0.45509 -1.42875,0.71438 -0.20108,0.11377 -0.39952,0.23018 -0.59531,0.35189 -1.37054,0.84932 -2.59027,1.88384 -3.63273,3.06123 -0.84931,0.96044 -1.57956,2.01877 -2.17487,3.1459 -0.0132,0.0238 -0.0212,0.045 -0.0344,0.0688 0.0159,0.0582 0.0318,0.11642 0.0476,0.17462 v 0.0132 c 0.0238,0.0688 0.0423,0.13494 0.0609,0.20373 0.008,0.0238 0.0159,0.0503 0.0212,0.0741 0.0185,0.0661 0.0397,0.13493 0.0609,0.20108 0.23548,-0.50006 0.50006,-0.9869 0.79111,-1.45521 0.0794,-0.0661 0.16933,-0.13758 0.26722,-0.21431 0.10319,-0.082 0.21432,-0.16933 0.33338,-0.26194 0.082,-0.0635 0.16669,-0.12964 0.25665,-0.19844 0.5027,-0.38364 1.09802,-0.83079 1.67745,-1.26206 0.87048,-1.08214 1.74361,-2.03464 2.40771,-2.71992 l 0.0106,-0.0132 c 0.11906,-0.12436 0.23283,-0.23813 0.33602,-0.34396 0.11641,-0.11642 0.22225,-0.22225 0.31485,-0.31486 1.21973,-0.66675 2.55058,-1.17739 3.97404,-1.49225 0.87048,-0.19314 1.74625,-0.30427 2.61673,-0.34396 l 0.09,0.11907 0.09,0.12171 1.88912,2.50825 c 0,0 3.47398,0.5715 6.42144,1.76477 0.0714,-0.0688 0.13494,-0.13759 0.20108,-0.20638 0.40482,-0.42069 0.69321,-0.80169 0.889,-1.09537 0.0238,-0.037 0.045,-0.0688 0.0661,-0.10319 0.008,-0.0132 0.0159,-0.0238 0.0238,-0.037 0.0132,-0.0212 0.0291,-0.0476 0.0423,-0.0688 0.0635,0.0476 0.127,0.0926 0.1905,0.14022 0.41539,0.32015 0.80697,0.66411 1.18268,1.0213 0.22225,0.21431 0.43392,0.43391 0.64029,0.65881 0.22755,0.24606 0.44715,0.50006 0.65617,0.762 1.38906,1.73567 2.37331,3.77296 2.86808,6.00339 0.8599,3.87086 0.14288,7.85019 -2.01877,11.20246 -0.4736,0.73554 -1.00806,1.41817 -1.59014,2.05052 -0.23548,0.254 -0.47625,0.50536 -0.72761,0.74084 -0.22225,0.21166 -0.45243,0.41275 -0.68791,0.60854 -0.92869,0.77523 -1.94734,1.43669 -3.04007,1.9685 -1.06362,0.51594 -2.19339,0.91546 -3.37608,1.17739 -1.10331,0.24342 -2.20398,0.36248 -3.28612,0.36248 -3.19088,0 -6.23359,-1.016 -8.73125,-2.79664 -0.56092,-0.39952 -1.09273,-0.83873 -1.59544,-1.31234 -0.26458,-0.0265 -0.51329,-0.0582 -0.75406,-0.0926 -0.0741,-0.0106 -0.14817,-0.0238 -0.21961,-0.0344 -0.0106,0 -0.0212,-0.003 -0.0318,-0.005 -0.0582,-0.0106 -0.11906,-0.0185 -0.17727,-0.0291 l 0.005,0.005 c 0.10584,0.11642 0.21167,0.23019 0.32015,0.34396 0.0582,0.0608 0.11377,0.12171 0.17198,0.17992 0.13494,0.13493 0.27252,0.26722 0.4101,0.39687 0.0344,0.0344 0.0688,0.0688 0.10584,0.10054 0.17727,0.1614 0.35454,0.32015 0.53975,0.47361 0.0476,0.0397 0.0952,0.0767 0.14287,0.11641 0.13758,0.11377 0.27517,0.2249 0.4154,0.33073 0.0688,0.0529 0.13758,0.10319 0.20637,0.15346 0.12436,0.0926 0.24871,0.18256 0.37571,0.26988 0.0767,0.0529 0.15346,0.10583 0.23019,0.1561 0.12435,0.082 0.24871,0.16404 0.37571,0.24606 0.0794,0.0503 0.1561,0.0979 0.23547,0.14552 0.1323,0.0794 0.26459,0.15875 0.39953,0.23548 0.0741,0.0423 0.14816,0.0847 0.22489,0.127 0.15611,0.0847 0.31486,0.16669 0.47625,0.24871 0.0556,0.0265 0.10848,0.0582 0.16404,0.0847 0.21696,0.10583 0.43392,0.20637 0.65352,0.30427 0.0476,0.0212 0.0952,0.0397 0.14288,0.0582 0.17462,0.0741 0.34925,0.14552 0.52652,0.21431 0.0794,0.0317 0.15875,0.0582 0.23812,0.0873 0.14817,0.0529 0.29634,0.10848 0.4445,0.15611 0.09,0.0291 0.17728,0.0582 0.26723,0.0873 0.14288,0.045 0.2884,0.09 0.43392,0.12964 0.0926,0.0265 0.18256,0.0503 0.27517,0.0767 0.14816,0.0397 0.29898,0.0767 0.44979,0.11113 0.0873,0.0212 0.17462,0.0423 0.26458,0.0608 0.16934,0.037 0.33867,0.0688 0.51065,0.10054 0.0714,0.0132 0.14023,0.0291 0.21166,0.0397 0.24078,0.0423 0.48419,0.0794 0.73025,0.10848 0.0344,0.005 0.0714,0.008 0.10848,0.0106 0.20902,0.0238 0.41805,0.045 0.62971,0.0635 0.0847,0.008 0.16934,0.0106 0.254,0.0159 0.16404,0.0106 0.32809,0.0185 0.49213,0.0265 0.0952,0.003 0.19314,0.005 0.28839,0.005 0.14288,0 0.28311,0 0.42598,0 0.16669,0 0.33338,-0.008 0.50006,-0.0132 0.11907,-0.005 0.23813,-0.008 0.35719,-0.0159 0.17463,-0.0106 0.34925,-0.0264 0.52388,-0.0423 0.11377,-0.0106 0.22489,-0.0185 0.33866,-0.0317 0.19315,-0.0212 0.3863,-0.0503 0.57944,-0.0794 0.0952,-0.0132 0.1905,-0.0265 0.28575,-0.0423 0.2884,-0.0476 0.57679,-0.10318 0.86519,-0.16668 0.70908,-0.15611 1.39435,-0.36248 2.05846,-0.60061 1.05039,-0.37835 2.04523,-0.85725 2.97127,-1.42081 0.0635,-0.0397 0.12964,-0.0741 0.19314,-0.11377 0.1614,-0.10319 0.32015,-0.20902 0.4789,-0.3175 0.23812,-0.1614 0.4736,-0.32809 0.70379,-0.50271 0.24342,-0.18256 0.48154,-0.37042 0.71173,-0.56885 0.7911,-0.67205 1.51077,-1.41288 2.15106,-2.21192 0.32015,-0.39952 0.62177,-0.81227 0.90223,-1.2409 0.28046,-0.42598 0.53975,-0.86518 0.77788,-1.31762 0.23812,-0.44979 0.45243,-0.91281 0.64558,-1.38377 0.0979,-0.23548 0.18785,-0.47361 0.27252,-0.71438 0.16933,-0.48154 0.3175,-0.97102 0.43921,-1.46579 0.0608,-0.24871 0.11642,-0.49742 0.16404,-0.75142 0.14552,-0.7567 0.23813,-1.52664 0.26988,-2.30452 0.0106,-0.25929 0.0132,-0.52123 0.0106,-0.78316 -0.005,-0.52388 -0.037,-1.0504 -0.0979,-1.57692 z"
       fill="#001d46"
       id="path867"
       style="stroke-width:0.264583" />
    <path
       d="m 200.85539,104.92997 c 0.92604,-0.0132 1.75419,-0.09 2.42888,-0.18256 0.19579,-0.0265 0.3757,-0.0556 0.54239,-0.082 0.20638,-0.0344 0.39159,-0.0688 0.55298,-0.10054 0.44186,-0.0873 0.69586,-0.15875 0.69586,-0.15875 1.56104,-4.58788 1.46314,-6.31561 1.46314,-6.31561 -0.42862,-0.59002 -1.09008,-1.28058 -1.73302,-1.90235 -0.18521,-0.17992 -0.37042,-0.35454 -0.55033,-0.51859 -0.19315,-0.17991 -0.37836,-0.3466 -0.54769,-0.49741 -0.508,-0.45509 -0.86783,-0.75671 -0.86783,-0.75671 -0.5133,0.43127 -1.0213,0.89694 -1.49225,1.35467 -1.4605,1.41552 -2.59292,2.75431 -2.59292,2.75431 0.58473,3.0136 1.5584,6.40556 1.5584,6.40556 0.1852,0.003 0.36512,0 0.54504,0 z"
       fill="#001d46"
       id="path869"
       style="stroke-width:0.264583" />
    <path
       d="m 185.85881,110.60264 c 0,0 1.31233,1.65364 3.98462,3.07181 0.0661,0.037 0.13229,0.0714 0.20109,0.10848 0.0212,0.0106 0.0397,0.0212 0.0582,0.0318 0,0 0.0397,0 0.10848,0 0.10055,0 0.26723,-0.005 0.48684,-0.0132 h 0.005 c 1.02923,-0.0397 3.21469,-0.19315 5.23875,-0.77788 l -0.32544,-3.77031 -6.37646,-1.47902 -3.38666,2.83104 z"
       fill="#001d46"
       id="path871"
       style="stroke-width:0.264583" />
    <path
       d="m 183.83739,92.07916 c 0,0 -1.11654,2.99508 -1.66687,6.62781 0,0 2.12195,1.43933 5.3287,3.15648 0,0 3.59305,-3.38667 4.9239,-4.86833 0,0 -1.06627,-3.38138 -2.413,-6.04838 0,0 -4.48733,0.74613 -6.17008,1.13242 z"
       fill="#001d46"
       id="path873"
       style="stroke-width:0.264583" />
    <path
       d="m 119.62831,119.56407 -1.54244,1.19328 c -0.29104,0.22489 -0.52123,0.49477 -0.68527,0.80433 -0.16669,0.30956 -0.26988,0.635 -0.31221,0.97367 -0.0423,0.33866 -0.0238,0.67733 0.0582,1.02129 0.082,0.34131 0.23548,0.65881 0.46302,0.9525 0.22489,0.29104 0.49477,0.52123 0.80433,0.68527 0.30956,0.16404 0.635,0.26987 0.97367,0.31221 0.33858,0.0423 0.67725,0.0238 1.02121,-0.0582 0.34131,-0.082 0.65881,-0.23548 0.9525,-0.46302 l 4.0931,-3.16971 c 0.39423,-0.30427 0.62177,-0.6985 0.68263,-1.18269 0.0609,-0.48419 -0.0609,-0.92339 -0.36513,-1.31762 l -1.09008,-1.40759 4.68313,-3.62479 1.09008,1.40758 -2.13254,1.651 1.09008,1.40759 1.54252,-1.19327 c 0.29104,-0.2249 0.52123,-0.49477 0.68527,-0.80434 0.16404,-0.30956 0.26988,-0.635 0.31221,-0.97366 0.0423,-0.33867 0.0238,-0.67734 -0.0582,-1.02129 -0.082,-0.34132 -0.23548,-0.65882 -0.46302,-0.9525 -0.22489,-0.29105 -0.49477,-0.52123 -0.80433,-0.68528 -0.30956,-0.16668 -0.635,-0.26987 -0.97102,-0.3122 -0.33867,-0.0423 -0.67734,-0.0238 -1.02129,0.0582 -0.34396,0.082 -0.65882,0.23548 -0.9525,0.46303 l -4.09311,3.1697 c -0.39423,0.30427 -0.62177,0.6985 -0.68262,1.18269 -0.0609,0.48419 0.0609,0.9234 0.36512,1.31763 l 1.09008,1.40758 -4.68312,3.62479 -1.09,-1.40758 2.13246,-1.651 -1.09009,-1.41023 z"
       fill="#001d46"
       id="path875"
       style="stroke-width:0.264583" />
    <path
       d="m 127.69016,133.9283 8.99054,-11.58345 c 0.22755,-0.29105 0.381,-0.60855 0.46303,-0.94986 0.082,-0.34131 0.10318,-0.68262 0.0608,-1.02129 -0.0423,-0.33867 -0.14552,-0.66146 -0.31221,-0.97367 -0.16669,-0.31221 -0.39423,-0.57943 -0.68527,-0.80698 -0.29104,-0.22754 -0.60854,-0.381 -0.94985,-0.46302 -0.34132,-0.082 -0.68263,-0.10318 -1.0213,-0.0609 -0.33866,0.0423 -0.66145,0.14552 -0.97366,0.31221 -0.31221,0.16668 -0.57944,0.39423 -0.80698,0.68527 l -8.99054,11.58346 1.40758,1.09273 4.72546,-6.08542 1.40758,1.09273 -4.72546,6.08541 1.40759,1.09273 z m 3.00302,-9.67845 3.63273,-4.67784 1.40759,1.09273 -3.63273,4.67783 z"
       fill="#001d46"
       id="path877"
       style="stroke-width:0.264583" />
    <path
       d="m 139.52498,121.08807 -6.79715,15.78769 4.90802,2.11402 2.11402,-4.90802 -1.63512,-0.70379 -1.41023,3.2729 -1.63513,-0.70644 6.09336,-14.15256 z"
       fill="#001d46"
       id="path879"
       style="stroke-width:0.264583" />
    <path
       d="m 150.75125,124.27895 -5.28373,-0.81492 -0.81492,5.28109 1.75948,0.27252 0.54504,-3.52161 1.71186,0.26459 -5.55361,12.93018 -0.27252,1.76213 5.28108,0.81492 0.81757,-5.28109 -1.76213,-0.27252 -0.54239,3.52161 -1.7145,-0.26459 5.55625,-12.93019 z"
       fill="#001d46"
       id="path881"
       style="stroke-width:0.264583" />
    <path
       d="m 158.14106,131.9016 c 0.13229,-0.19844 0.17992,-0.50536 0.13758,-0.92075 l -0.53446,-5.41603 c -0.0476,-0.49477 -0.26193,-0.89693 -0.64029,-1.2065 -0.37835,-0.30956 -0.81491,-0.4392 -1.30969,-0.39158 l -3.54541,0.3519 1.69333,17.10796 3.54542,-0.3519 c 0.49477,-0.0476 0.89694,-0.26194 1.2065,-0.64029 0.30956,-0.37836 0.43921,-0.81227 0.39158,-1.30969 l -0.51329,-5.19906 c -0.0529,-0.52652 -0.16404,-0.89429 -0.33867,-1.10331 -0.17462,-0.20903 -0.37571,-0.34132 -0.60854,-0.39953 0.21167,-0.15081 0.38365,-0.32279 0.51594,-0.52387 z m -3.94229,-5.98488 1.77271,-0.17462 0.58208,5.89491 -1.77271,0.17463 z m 1.34143,13.56254 -0.58208,-5.89491 1.77271,-0.17463 0.58208,5.89492 z"
       fill="#001d46"
       id="path883"
       style="stroke-width:0.264583" />
    <path
       d="m 164.66039,138.10607 c 0.24871,0.25136 0.52652,0.44715 0.83608,0.58738 0.30957,0.14023 0.6403,0.2249 0.99219,0.24606 0.3519,0.0238 0.6985,-0.0291 1.04511,-0.15875 0.3466,-0.12964 0.64293,-0.3175 0.89429,-0.56621 0.24871,-0.2487 0.44714,-0.52652 0.58737,-0.83608 0.14023,-0.30956 0.22225,-0.64029 0.24607,-0.99219 0.0238,-0.35189 -0.0291,-0.6985 -0.15875,-1.0451 l -5.13028,-13.73717 -1.66952,0.62442 5.39221,14.43567 -1.66952,0.62441 -5.39221,-14.43566 -1.66952,0.62441 5.13027,13.73717 c 0.12965,0.3466 0.3175,0.64294 0.56621,0.89429 z"
       fill="#001d46"
       id="path885"
       style="stroke-width:0.264583" />
    <path
       d="m 177.34716,131.85132 c 0.12965,0.18257 0.29369,0.34396 0.48684,0.4789 0.19579,0.13758 0.38364,0.24871 0.56356,0.33867 l 1.49225,-1.05834 c -0.23548,-0.10848 -0.44186,-0.2196 -0.61648,-0.33073 -0.17727,-0.11112 -0.33602,-0.26458 -0.47361,-0.46037 l -3.31522,-4.67254 c -0.30692,-0.43127 -0.58738,-0.69586 -0.84138,-0.79111 -0.254,-0.0953 -0.49742,-0.11112 -0.72496,-0.045 0.10848,-0.23547 0.17198,-0.47095 0.1905,-0.70908 0.0185,-0.23812 -0.0953,-0.52917 -0.33602,-0.86783 l -3.14854,-4.43706 c -0.2884,-0.40482 -0.67204,-0.64823 -1.15358,-0.73025 -0.48155,-0.082 -0.92605,0.0212 -1.33086,0.30956 l -2.90512,2.0611 9.94568,14.02027 1.45257,-1.03187 -4.45823,-6.28386 1.45256,-1.03187 3.72004,5.24404 z m -6.20448,-5.66472 -3.42635,-4.8313 1.45256,-1.03187 3.42636,4.83129 z"
       fill="#001d46"
       id="path887"
       style="stroke-width:0.264583" />
    <path
       d="m 182.82404,126.79249 c 0.33866,0.0979 0.67733,0.13229 1.016,0.10319 0.33866,-0.0291 0.66675,-0.11906 0.98425,-0.26988 0.3175,-0.15081 0.59531,-0.36777 0.83343,-0.65087 0.23813,-0.28311 0.40482,-0.59267 0.50271,-0.93133 0.0979,-0.33867 0.13229,-0.67734 0.10319,-1.016 -0.0291,-0.33867 -0.11906,-0.66675 -0.26987,-0.98425 -0.15082,-0.3175 -0.36778,-0.59532 -0.65088,-0.83344 l -5.31283,-4.49263 -1.64836,1.94998 1.35996,1.15094 0.49742,-0.58738 4.52173,3.82323 -1.15094,1.35996 -10.40606,-8.79739 1.15093,-1.35996 2.05846,1.74096 1.15094,-1.35996 -1.4896,-1.25942 c -0.28311,-0.23812 -0.59267,-0.40481 -0.93134,-0.50271 -0.33866,-0.0979 -0.67733,-0.13229 -1.016,-0.10318 -0.33866,0.0291 -0.66675,0.11906 -0.98425,0.26987 -0.3175,0.15081 -0.59531,0.36777 -0.83343,0.65088 -0.23813,0.2831 -0.40482,0.59266 -0.50271,0.93133 -0.0979,0.33867 -0.13229,0.67733 -0.10319,1.016 0.0291,0.33867 0.11906,0.66675 0.26987,0.98425 0.15082,0.3175 0.36778,0.59531 0.65088,0.83344 l 9.26571,7.83431 c 0.2831,0.23812 0.59266,0.40746 0.93133,0.50271 z"
       fill="#001d46"
       id="path889"
       style="stroke-width:0.264583" />
    <path
       d="m 122.91443,108.89343 c -1.05304,0.21167 -3.2967,0.23283 -3.2967,0.23283 l -1.36793,1.15094 c 0,0 0.14552,0.005 0.39688,0.0132 1.27532,0.045 5.23613,0.17198 6.08809,0.0556 1.92881,-0.26458 3.19881,-0.96044 5.33664,-2.20398 1.92617,-1.11919 2.09286,-2.35214 2.09286,-2.35214 l -1.73832,0.38893 c 0,0 -6.45847,2.50561 -7.51152,2.71727 z"
       fill="#dd013f"
       id="path891"
       style="stroke-width:0.264583" />
    <path
       d="m 186.14456,105.7396 c -0.14817,-0.38894 -0.64823,-0.32809 -0.83873,-0.41805 -2.53471,-1.19327 -2.87867,-2.46591 -3.94494,-3.97404 -0.46831,-0.66146 -1.2991,-1.524 -1.73831,-2.00289 0.008,0 0.0132,0 0.0212,0.003 -0.43392,-1.04246 -0.88107,-2.15106 -1.3044,-3.31523 -0.0397,-0.11112 -0.082,-0.22225 -0.12171,-0.33602 -0.0132,-0.0397 -0.0291,-0.0794 -0.0423,-0.11906 -0.0106,-0.0318 -0.0212,-0.0609 -0.0317,-0.0926 -0.0238,-0.0661 -0.045,-0.13494 -0.0688,-0.20109 -0.0238,-0.0688 -0.0476,-0.13758 -0.0714,-0.20637 -0.0159,-0.045 -0.0318,-0.0926 -0.0476,-0.13759 -0.0265,-0.0767 -0.0503,-0.15345 -0.0767,-0.23018 l -0.005,-0.0159 c -0.0212,-0.0635 -0.0397,-0.127 -0.0609,-0.1905 -0.0212,-0.0661 -0.0423,-0.12964 -0.0635,-0.19579 -0.13758,-0.43656 -0.26988,-0.88106 -0.39423,-1.3335 -0.0185,-0.0635 -0.0344,-0.127 -0.0529,-0.1905 -0.0185,-0.0688 -0.037,-0.13758 -0.0556,-0.20373 -0.254,-0.97367 -0.47096,-1.97908 -0.62971,-3.0136 -0.045,-0.2884 -0.0847,-0.5768 -0.11906,-0.86784 -0.0741,-0.61912 -0.56621,-1.95262 -1.11919,-2.81252 -1.72773,-2.55323 -5.88698,-6.70983 -6.10923,-6.92414 -0.14023,-0.13494 -0.29368,-0.27252 -0.42598,-0.39159 l -0.10848,-0.0979 -4.699,-3.53484 c 0,0 -0.1852,-0.14287 -0.37041,-0.3122 -0.1905,-0.17727 -0.38894,-0.37307 -0.66675,-0.5768 -0.20109,-0.14816 -0.16934,-0.10847 -0.508,-0.35983 -0.0423,-0.0318 -0.37042,-0.27252 -0.4154,-0.29898 -2.47914,-1.47108 -2.06375,-1.32027 -3.25173,-1.69333 -0.45773,-0.14288 -0.99218,-0.13229 -1.54516,-0.10054 -0.008,-0.0185 -0.0159,-0.0397 -0.0265,-0.0582 -0.67733,-0.0609 -1.35202,-0.0318 -1.99761,0.10848 -2.30452,0.50271 -4.68577,1.72773 -6.78127,2.79135 -4.60904,2.33892 -9.22337,4.66461 -13.85093,6.96913 -2.18811,1.09008 -4.38415,2.29393 -6.62252,3.2676 -0.52653,0.23019 -1.28853,0.31221 -1.5293,0.93398 -0.32279,0.8255 0.3863,2.03729 1.06098,2.48973 1.42875,0.94985 3.62215,-0.22225 4.9874,-0.76729 l 0.23283,0.13493 c -1.00806,1.26736 -2.14841,1.29646 -3.59039,1.59544 -1.143,0.23548 -2.28865,0.84138 -3.42636,1.16681 -1.5531,0.44186 -3.07975,0.92605 -4.61433,1.42346 -0.64294,0.20638 -1.70394,0.35719 -1.52932,1.29911 -0.22225,0.51858 -0.81224,0.40216 -1.25942,0.52916 -7.76287,2.17223 -12.74762,3.4343 -16.3777,4.37886 -0.8599,0.22489 -1.64571,0.43127 -2.37332,0.62706 h -0.003 c -0.17992,0.0503 -0.35454,0.0979 -0.52652,0.14552 -0.17992,0.0503 -0.35454,0.0979 -0.52652,0.14552 -1.37319,0.38629 -2.54794,0.74613 -3.68299,1.15094 -0.003,0 0,0.005 0.003,0.005 1.37053,-0.1905 2.57968,-0.35983 3.69887,-0.51594 0.17727,-0.0238 0.35454,-0.0503 0.52652,-0.0741 0.17727,-0.0238 0.35189,-0.0503 0.52652,-0.0741 h 0.003 c 0.81757,-0.11642 1.59809,-0.23019 2.37067,-0.34132 4.47146,-0.65616 8.73125,-1.35202 18.95213,-3.08239 14.45683,-2.4474 29.09623,-4.45029 43.64038,-6.31825 2.52677,-0.32015 5.08,-0.69586 7.6147,-0.92869 1.62719,-0.15346 1.90236,0.40217 3.02155,1.46315 -0.003,0.71702 -3.01625,0.52387 -3.69094,0.59531 -0.10584,-0.0847 -0.10054,-0.2249 -0.0318,-0.33073 0.47889,-0.25929 0.97631,-0.46037 1.33085,-0.89694 l -0.16669,-0.36512 c -5.29431,0.45244 -10.6336,1.43139 -15.88293,2.23837 -8.04863,1.23561 -16.12106,2.43417 -24.13265,3.87615 -5.37633,0.96837 -10.68652,2.33362 -16.05494,3.35756 v 0.23283 c 9.70759,-1.03187 19.28021,-3.36285 28.95073,-4.71752 l 0.0344,0.26459 c -2.33892,0.72231 -4.77044,1.09802 -7.14375,1.66158 -8.94556,2.1246 -17.95727,3.97404 -26.92932,6.00604 -0.1905,0.0423 -0.34925,0.0794 -0.48419,0.11113 -1.27793,0.29104 -0.20373,0.0609 -2.0267,0.49741 0.0318,-0.008 0.89164,0.005 1.54516,0.0185 0.40746,0.008 0.73554,0.0132 0.73554,0.0132 0.53711,0.32809 0.0952,1.44727 0.0847,1.44992 -0.0556,0.0132 -0.0423,0.49213 -0.0423,0.49213 0.003,0.0873 0.15081,0.1217 0.30162,0.16404 l 3.10356,-0.2884 c 1.56105,-0.1905 19.45749,-3.35227 3.06388,0.46831 -0.20108,0.0476 -2.36802,0.54505 -3.18558,0.762 -1.00807,0.26988 -3.46605,0.30163 -3.302,0.41011 0,0 -0.83873,1.56898 -2.38919,1.86002 -3.44488,0.65352 -2.30717,3.40254 -4.71488,4.01637 -0.0397,0.0106 -0.0767,0.0265 -0.11377,0.045 -0.1852,0.0952 -0.31485,0.29369 -0.49477,0.54769 -0.36248,0.6059 -0.93927,1.397 -1.16946,2.04788 -0.14287,0.40745 -0.15345,0.75935 0.10848,0.97366 0.0476,0.0476 0.15611,0.10848 0.29898,0.17727 h 0.003 c 0.59796,0.2884 1.82298,0.70644 2.16164,0.80434 0.2593,0.0741 0.50007,0.0794 0.72232,0.0317 1.56104,-0.33073 2.32568,-3.24644 3.46339,-3.88673 0.57415,-0.32544 3.57717,-0.0661 3.62479,-0.11907 0.1614,-0.0979 0.35984,-0.24077 0.62442,-0.47625 0.55298,-0.49212 1.57956,-1.56104 1.66952,-1.64306 1.21444,-1.08479 1.56369,-2.08756 1.80711,-1.9976 0.26722,0.10054 0.76729,0.65881 0.90222,0.49212 0.28575,-0.34925 8.18889,-2.18546 11.50676,-3.02418 0.88371,-0.22225 1.46315,-0.56092 1.46315,-0.56092 0.29898,-0.24606 1.25941,-1.78329 1.50548,-1.86002 1.59543,-0.49742 3.59568,-0.78581 5.35781,-0.94456 0.15081,-0.0132 0.29898,-0.0265 0.4445,-0.0397 0.0238,0 0.0503,-0.005 0.0767,-0.005 0.3466,-0.0265 0.68262,-0.0503 1.00012,-0.0688 0.0397,0 0.0767,-0.003 0.11642,-0.005 0.11377,-0.005 0.22489,-0.0106 0.33337,-0.0159 0.0529,-0.003 0.10584,-0.005 0.15875,-0.008 0.56357,-0.0238 1.04775,-0.0344 1.40759,-0.0344 0.16404,0 -0.18786,0.79905 -0.13494,0.79375 0.12965,-0.0106 4.36033,-0.37041 4.40531,-0.49212 0.55034,-1.4896 1.34673,-4.23863 2.10609,-4.43177 0.14552,-0.037 -0.52388,3.4925 -0.43657,3.55864 2.5744,1.9738 3.42107,1.97115 3.74915,2.16165 1.22767,0.71438 1.60867,1.78858 1.17739,3.30994 -0.44714,1.57691 -3.43693,2.90512 -4.81541,2.02406 -0.91281,-0.58208 -0.3519,-2.57175 -1.44992,-2.38125 -1.55046,0.26723 -3.94229,-0.0952 -5.44512,0.32808 -1.24355,0.34925 -0.86784,0.41275 -0.49213,0.49213 0.18521,0.0397 3.76767,1.87589 4.13279,2.29923 0.26723,0.31221 1.25942,0.3175 1.12184,0.62971 -0.21167,0.48418 -0.59796,0.78845 -0.93398,1.18533 -0.55827,0.66146 -0.73554,1.12183 -0.3519,1.09537 1.85738,-0.13229 4.02167,0.30957 7.52475,-0.25664 0.62971,-0.10054 3.00302,-0.66146 3.61156,-0.79375 1.1483,-0.24606 1.80711,0.46567 2.42094,-0.23019 1.47373,-1.66952 3.56658,-3.92642 3.59833,-5.70706 0.0317,-1.77006 -2.27277,-4.72546 -2.43416,-5.11704 -0.0873,0.0106 -1.78859,0.48948 -1.96586,0.59002 -0.15081,0.0847 0.26988,-0.0423 -0.11377,0.20373 l 1.80711,3.47398 c 0.38364,1.60337 -0.70115,2.99773 -1.75154,4.07723 -0.12171,0.12435 -0.2884,0.19843 -0.46303,0.19843 -0.0847,-0.0159 -0.12964,-0.0953 -0.1561,-0.19579 -0.0529,-0.19314 0.0132,-0.38364 0.0741,-0.57679 0.42598,-1.39435 1.22502,-3.03477 0.35455,-4.29683 0,0 -2.0955,-3.45546 -2.02407,-3.52955 0.66675,-0.70643 3.32052,-1.38641 3.22792,-1.42345 0.24342,-0.56886 0.75935,-1.60338 1.12183,-2.5453 0.50536,-1.30968 0.59002,-2.52677 0.87577,-3.33904 0.37042,0.26988 0.32809,2.63525 0.35454,3.09034 0.0344,0.56356 0.0106,0.84137 -0.1905,1.36789 -0.16668,0.43127 -0.52387,0.84931 -0.46566,1.25942 0.037,0.26458 2.10873,-0.72231 4.41325,-1.21708 1.33879,-0.2884 2.39977,-0.55034 2.39977,-0.55034 0.12964,-0.0159 0.11906,0.34925 0.15081,0.71967 0.008,0.11377 -0.65617,0.24871 -1.02923,0.889 -0.29898,0.51064 -0.43921,0.99219 -0.5371,1.42081 -0.12171,0.54769 -0.16934,1.01071 -0.36513,1.34673 -0.22225,0.38365 -0.65352,0.57944 -1.02129,0.81492 -0.17462,0.11112 -0.33867,0.23018 -0.45773,0.38364 -0.25664,0.32809 -0.6006,1.63777 -0.46037,2.07169 0.23283,0.71967 0.50535,0.19315 1.23031,0.19315 0.35719,0 0.082,0.2196 -0.30163,0.68262 -0.27252,0.33073 -0.43656,0.78581 -0.38364,1.20386 0.11377,0.88635 0.12435,2.36008 1.12183,2.51883 1.61131,0.25664 1.98702,-0.10054 2.29923,-0.16404 1.07421,-0.22225 2.71463,-1.11919 3.61156,-1.3679 1.0213,-0.28046 1.91294,0.55827 3.88673,-0.16404 1.48167,-0.54504 1.78594,-1.81504 2.40771,-1.73038 0.44715,0.0609 0.80433,0.25136 1.18269,0.50007 0.0714,0.0476 0.14552,0.0979 0.22225,0.14816 0.0714,0.0476 0.14287,0.0979 0.21696,0.15082 0.4101,0.2831 0.87841,0.6006 1.51606,0.8837 0.0635,0.0291 0.12965,0.0556 0.19844,0.0847 0.0635,0.0265 0.12964,0.0529 0.19579,0.0767 l 0.0132,0.005 c 0.0741,0.0265 0.14816,0.0529 0.22489,0.0794 0.20902,0.0714 0.43392,0.13758 0.67734,0.19843 l 0.0212,0.005 c 0.0529,0.0132 0.10848,0.0265 0.16405,0.0397 0.0661,0.0159 0.13493,0.0291 0.20372,0.0423 0.0767,0.0159 0.15611,0.0317 0.23548,0.045 0.66146,0.1217 1.43934,0.20373 2.36802,0.22225 0.30428,0.005 0.55563,-0.24077 0.55298,-0.54505 0,-0.14552 -0.0926,-0.28045 -0.2196,-0.35189 -1.42875,-0.81492 -2.60879,-0.54504 -4.064,-3.16706 -0.36248,-0.65088 -1.00277,-1.71715 -1.61925,-2.58498 -0.10319,-0.14552 -0.20638,-0.28575 -0.30692,-0.4154 -0.0503,-0.0661 -0.10054,-0.12964 -0.15081,-0.19314 -0.0503,-0.0635 -0.10054,-0.12171 -0.14817,-0.17992 -0.0318,-0.037 -0.0635,-0.0767 -0.0953,-0.11113 -0.0503,-0.0556 -0.0979,-0.10848 -0.14552,-0.1561 -0.0106,-0.0476 0.0397,-0.037 0.127,0.0106 0.0265,0.0132 0.0556,0.0318 0.0873,0.0503 0.0423,0.0265 0.0873,0.0556 0.13493,0.0873 0.045,0.0291 0.09,0.0608 0.13759,0.0926 0.082,0.0556 0.16933,0.11642 0.254,0.17198 0.0873,0.0582 0.17462,0.11642 0.25135,0.16669 2.1881,1.81504 3.04535,5.41073 7.26546,4.77308 0.24342,-0.037 0.68527,-0.1614 0.50006,-0.65087 z M 147.4175,81.31062 c 0.35189,-0.43921 0.8255,-0.7329 1.29645,-1.02923 0.61913,0.0661 0.98161,0.20902 1.59809,0 1.38377,-0.46831 6.90298,-1.92617 8.10948,-1.69334 0.0741,0.37836 -0.51329,0.42598 -0.76729,0.49742 -3.29407,0.91546 -6.74423,1.70921 -10.1018,2.36008 l -0.13493,-0.13229 z m 22.00275,3.48985 c -6.35,0.93133 -19.50773,2.794 -19.50773,2.794 l 0.89164,-0.41275 19.00767,-3.09298 c 0.19844,-0.0344 0.39952,0.0317 0.56356,0.13229 0.13758,0.46567 -0.68792,0.54769 -0.95514,0.57944 z m 2.794,19.79613 0.0503,-0.082 c -0.63236,0.29634 -1.88913,0.71173 -2.24367,0.49213 0.1905,-0.43656 0.76994,-1.07421 1.12183,-1.3679 0.16404,-0.13758 0.76729,-0.90223 0.93134,-0.90223 0.22489,0 0.35718,0.38365 0.35718,0.55828 -0.0688,0.70114 -0.037,1.18268 -0.21431,1.30175 z m 2.38125,-9.25778 c -0.0265,0.41805 -0.52123,1.17211 -0.52123,1.17211 0,0 -0.0529,-1.06892 -0.75671,-1.17211 -0.70379,-0.10318 -7.63588,0.12965 -7.63588,0.12965 0,0 4.37886,-1.11919 4.77044,-1.22502 0.39158,-0.10319 1.06892,-0.0529 1.25148,-0.78052 0.18256,-0.73025 1.0795,-0.71438 1.0795,-0.71438 0,0 1.16152,0.40217 1.42081,1.05305 0.26194,0.65087 0.41804,1.11918 0.39159,1.53722 z"
       fill="#dd013f"
       id="path893"
       style="stroke-width:0.264583" />
    <path
       d="m 102.04942,109.89355 c -0.0423,0.0556 0.0132,0.0423 0.10848,0.12436 0.0952,0.082 1.06627,0.34131 1.16152,0.38364 0.0794,0.0344 0.1905,0.0106 0.2831,-0.0185 0.0212,-0.008 0.0423,-0.0132 0.0582,-0.0212 0.0952,-0.0423 0.42333,-0.61648 0.60061,-0.86255 0.0291,-0.0397 0.0609,-0.0794 0.0979,-0.1217 0.44715,-0.26459 0.86783,-0.73025 1.1774,-1.48961 -0.10584,-0.33602 -1.48432,-0.21696 -2.5109,0.0767 -0.57944,0.16669 -1.05039,0.38894 -1.11654,0.61648 -0.09,0.31221 0.1614,0.65881 0.57679,0.87313 -0.22489,0.22225 -0.42598,0.42068 -0.44185,0.44185 z"
       fill="#dd013f"
       id="path895"
       style="stroke-width:0.264583" />
    <path
       d="m 100.35074,83.73949 c 0.13494,0.14288 0.28575,0.26988 0.45508,0.37836 0.14553,0.0952 0.30692,0.17197 0.47625,0.23812 0.37571,0.14817 0.80169,0.23283 1.26207,0.23283 0.23018,0 0.46037,-0.0212 0.68527,-0.0608 0.14816,-0.0265 0.3175,-0.0661 0.50271,-0.11377 0.6641,-0.16933 1.53193,-0.45244 2.43681,-0.76465 6.05102,-2.08756 7.64116,-1.4605 7.64116,-1.4605 0.72761,0.11113 0.14553,1.62984 -0.79375,2.50561 -0.48683,0.45508 -1.09537,1.01864 -1.70656,1.68804 -0.36248,0.39687 -0.99748,1.9341 -1.10596,2.57175 -0.20373,1.24354 0.55563,2.75167 1.65894,3.29406 0.35983,0.17463 0.71702,0.26194 1.09802,0.26194 0.6059,0 1.23561,-0.22225 1.82827,-0.44715 0.17727,-0.0688 0.4154,-0.14816 0.68527,-0.24077 0.6694,-0.22489 2.2569,-0.75935 2.88132,-1.26471 -0.23813,-0.0344 -0.62971,-0.0635 -1.27794,-0.0635 -0.35719,0 -0.74877,0.008 -1.12448,0.0159 -0.38365,0.008 -0.77788,0.0159 -1.14829,0.0159 -1.09273,0 -1.6854,-0.0714 -2.04788,-0.24341 -0.4736,-0.2249 -0.61648,-0.57944 -0.65087,-0.83609 -0.1614,-1.16152 1.49225,-2.70668 4.23598,-5.11439 1.12183,-0.9869 2.66171,-2.33627 2.76489,-2.74638 0.12436,-0.5027 0.0635,-0.93662 -0.18521,-1.3282 -0.87047,-1.3679 -5.99016,-2.38125 -5.99016,-2.38125 -1.73567,-0.35984 -3.32317,-0.7329 -3.55865,-1.24619 -0.10318,-0.22754 -0.0952,-0.47361 0.0265,-0.69321 0.0476,-0.09 0.10583,-0.14817 0.44715,-0.47625 0.0608,-0.0582 0.13229,-0.127 0.20637,-0.20108 -0.75935,0.127 -1.95262,0.38364 -3.10885,0.65087 -1.22238,0.28575 -2.39977,0.58473 -2.97392,0.762 h -0.003 c -0.0847,0.0265 -0.15611,0.0503 -0.21432,0.0714 -0.003,0 -0.20108,0.0794 -0.47096,0.20902 -0.22489,0.10583 -0.50006,0.24871 -0.75935,0.4101 -0.67733,0.42069 -1.24883,0.98161 -0.56621,1.42611 0.12171,0.0794 0.28575,0.1561 0.49213,0.22489 0.14287,0.0476 0.30956,0.0953 0.50006,0.13759 0.29898,0.0688 0.65087,0.13229 1.0795,0.18256 0.46567,0.0582 0.90223,0.38894 1.0795,0.84137 0.0185,0.0476 0.037,0.0979 0.0503,0.14817 0.0318,0.12965 -0.008,0.27517 -0.0873,0.42333 -0.082,0.15346 -0.1905,0.28311 -0.31486,0.38894 -0.42068,0.36248 -1.03981,0.45773 -1.57162,0.21167 -0.29898,-0.13758 -0.61648,-0.29369 -0.87313,-0.43392 -0.19843,-0.11112 -0.35718,-0.21166 -0.44714,-0.29369 -0.0503,-0.0476 -0.0794,-0.0873 -0.0741,-0.11906 0,-0.005 -0.1217,0.0265 -0.1852,0.0476 -0.10584,0.0344 -0.21432,0.0714 -0.32544,0.10848 -0.51858,0.17727 -1.05833,0.40745 -1.2409,0.78316 -0.27516,0.56621 -0.24077,1.53723 0.0661,1.99496 0.0714,0.10583 0.15346,0.20373 0.24342,0.29898 z"
       fill="#dd013f"
       id="path897"
       style="stroke-width:0.264583" />
    <path
       d="m 101.47795,110.21899 h -0.1614 c -0.0714,0.008 -0.13758,0.0212 -0.20373,0.0318 -0.17992,0.0291 -0.3519,0.0661 -0.508,0.11642 -0.18256,0.0582 -0.3466,0.13494 -0.50006,0.22225 -1.15359,0.64029 -1.61661,1.94998 -1.89971,3.00037 0.0661,0.10054 0.44979,0.2884 0.62177,0.39688 0.69585,0.37306 1.35467,1.03716 1.82033,0.43921 0.0661,-0.082 0.20638,-0.30692 0.38365,-0.60061 0.11112,-0.18785 0.23548,-0.40216 0.36512,-0.63235 0.11642,-0.20902 0.23548,-0.42863 0.3519,-0.64559 0.30163,-0.57414 0.5715,-1.1377 0.6694,-1.47637 0.0979,-0.33867 -0.12965,-0.81756 -0.93134,-0.84931 z"
       fill="#dd013f"
       id="path899"
       style="stroke-width:0.264583" />
    <path
       d="m 147.36193,106.34814 c 0.30163,0.4101 1.06627,1.88648 1.53194,1.94204 0.46567,0.0556 1.83356,-0.62971 1.86002,-1.09538 0.0265,-0.46566 -0.54769,-1.97114 -0.84666,-2.32568 -0.30163,-0.35455 -1.83357,-0.1905 -7.52475,0.24606 l 0.32808,0.24606 c 0,0 4.34975,0.57415 4.65137,0.98425 z"
       fill="#dd013f"
       id="path901"
       style="stroke-width:0.264583" />
    <path
       d="m 145.29025,60.26566 h 4.14337 V 57.9241 h -4.14337 v -3.03742 h 4.41589 v -2.34156 h -7.27339 v 13.79537 h 2.8575 z"
       fill="#dd013f"
       id="path903"
       style="stroke-width:0.264583" />
    <path
       d="m 157.58279,66.70562 c 1.18533,0 2.25689,-0.34661 3.32581,-0.82286 V 62.6813 c -0.7964,0.8599 -2.02142,1.46315 -3.24644,1.46315 -2.66435,0 -4.29683,-2.32304 -4.29683,-4.64608 0,-2.32304 1.57427,-4.75721 4.318,-4.75721 1.22502,0 2.43152,0.54769 3.22792,1.46314 v -3.21997 c -0.99219,-0.5133 -2.11932,-0.80434 -3.26761,-0.80434 -4.29683,0 -7.23371,3.45811 -7.23371,7.37394 0,3.91583 3.0533,7.15433 7.1755,7.15433 z"
       fill="#dd013f"
       id="path905"
       style="stroke-width:0.264583" />
  </g>
</svg>
